<svg width="23" height="32" viewBox="0 0 23 32" fill="none" xmlns="http://www.w3.org/2000/svg">
    <path
        d="M10.4278 6.73954C10.1236 6.73954 9.82622 6.82975 9.57328 6.99876C9.32034 7.16776 9.12321 7.40798 9.00679 7.68903C8.89038 7.97008 8.85992 8.27933 8.91926 8.57769C8.97861 8.87605 9.1251 9.15011 9.34021 9.36522C9.55531 9.58032 9.82937 9.72681 10.1277 9.78616C10.4261 9.84551 10.7353 9.81505 11.0164 9.69863C11.2974 9.58222 11.5377 9.38508 11.7067 9.13214C11.8757 8.8792 11.9659 8.58183 11.9659 8.27763C11.9653 7.86987 11.8031 7.47897 11.5148 7.19064C11.2265 6.90231 10.8356 6.74008 10.4278 6.73954ZM10.4278 8.79032C10.3264 8.79032 10.2273 8.76025 10.143 8.70392C10.0586 8.64758 9.99293 8.56751 9.95413 8.47383C9.91532 8.38014 9.90517 8.27706 9.92495 8.17761C9.94473 8.07815 9.99356 7.9868 10.0653 7.9151C10.137 7.8434 10.2283 7.79457 10.3278 7.77478C10.4272 7.755 10.5303 7.76515 10.624 7.80396C10.7177 7.84276 10.7978 7.90848 10.8541 7.99279C10.9104 8.0771 10.9405 8.17623 10.9405 8.27763C10.9405 8.4136 10.8865 8.54401 10.7903 8.64016C10.6942 8.73631 10.5638 8.79032 10.4278 8.79032ZM18.4942 13.285C18.4577 13.2273 18.41 13.1774 18.354 13.1384C18.2979 13.0994 18.2346 13.072 18.1679 13.0578C18.1011 13.0435 18.0321 13.0428 17.9651 13.0556C17.898 13.0684 17.8341 13.0944 17.7773 13.1322C17.7204 13.17 17.6717 13.2188 17.6339 13.2756C17.5961 13.3325 17.5701 13.3964 17.5574 13.4635C17.5446 13.5306 17.5454 13.5995 17.5596 13.6663C17.5739 13.7331 17.6014 13.7963 17.6404 13.8523C20.0603 17.4945 18.5092 20.0348 16.1618 23.88C15.8918 24.3216 15.6149 24.7782 15.3305 25.2533C15.2611 25.3703 15.241 25.51 15.2745 25.6418C15.3081 25.7736 15.3927 25.8866 15.5096 25.956C15.6266 26.0255 15.7663 26.0456 15.8981 26.012C16.0299 25.9784 16.1429 25.8939 16.2124 25.7769C16.4913 25.308 16.7688 24.8534 17.0368 24.4145C19.4075 20.5351 21.2785 17.4713 18.4963 13.285H18.4942ZM20.6708 28.6877C20.5731 28.4311 20.4207 28.199 20.2241 28.0073C20.0275 27.8157 19.7915 27.6693 19.5326 27.5782L20.3303 25.7496C22.2302 22.5423 23.063 18.8147 22.7087 15.1038C22.3544 11.3928 20.8313 7.89015 18.3589 5.10028C17.6548 4.31256 16.836 3.63548 15.93 3.09189L10.9446 0.0751863C10.8668 0.0276451 10.7777 0.00171953 10.6865 8.26251e-05C10.5953 -0.00155428 10.5054 0.0211569 10.4259 0.0658742C10.3464 0.110592 10.2803 0.175697 10.2344 0.254477C10.1885 0.333258 10.1644 0.422863 10.1646 0.514054V3.39472C10.1648 3.41889 10.1597 3.44282 10.1498 3.46487C10.1399 3.48693 10.1254 3.5066 10.1072 3.52255L1.29362 11.3299C1.01633 11.5726 0.835998 11.9073 0.785762 12.2724C0.735526 12.6375 0.818766 13.0085 1.02018 13.3171L1.58346 14.188C1.7857 14.4974 2.0921 14.7241 2.44712 14.8271C2.80215 14.9301 3.18231 14.9024 3.51871 14.7492L5.50114 13.8366C6.50753 14.6437 7.70581 15.1765 8.97926 15.3829L8.47067 17.1732C7.9676 18.9996 6.9416 20.6391 5.51891 21.89L2.561 24.4945C2.4858 24.5384 2.42303 24.6007 2.37865 24.6756C2.33427 24.7505 2.30974 24.8354 2.30739 24.9225L2.23493 27.5119C1.92579 27.5774 1.63799 27.7193 1.39784 27.9247C1.1577 28.1301 0.972857 28.3924 0.860219 28.6877L0.0330706 30.882C0.00379645 30.9595 -0.00625798 31.043 0.0037678 31.1252C0.0137936 31.2075 0.0436006 31.286 0.0906377 31.3543C0.137675 31.4225 0.20054 31.4782 0.273851 31.5168C0.347162 31.5554 0.428736 31.5757 0.511586 31.5759H21.0194C21.1023 31.5757 21.1838 31.5554 21.2571 31.5168C21.3304 31.4782 21.3933 31.4225 21.4403 31.3543C21.4874 31.286 21.5172 31.2075 21.5272 31.1252C21.5372 31.043 21.5272 30.9595 21.4979 30.882L20.6708 28.6877ZM3.32868 25.1863L6.19977 22.657C7.77096 21.276 8.90433 19.466 9.46051 17.4494L10.0204 15.4786C11.9042 15.5276 13.7374 14.8652 15.1548 13.6233C15.2571 13.5336 15.3195 13.4069 15.3284 13.2711C15.3372 13.1354 15.2918 13.0017 15.202 12.8994C15.1123 12.7972 14.9856 12.7347 14.8498 12.7259C14.7141 12.717 14.5803 12.7625 14.4781 12.8522C13.2985 13.8828 11.7864 14.4527 10.22 14.4571C8.65364 14.4615 7.13836 13.9001 5.95299 12.8762C5.87905 12.8005 5.78351 12.7496 5.67948 12.7304C5.57545 12.7112 5.46803 12.7246 5.37194 12.7688L3.0942 13.8182C2.98212 13.8692 2.85544 13.8784 2.73716 13.844C2.61888 13.8097 2.51684 13.734 2.44957 13.6309L1.88561 12.76C1.81844 12.6571 1.79066 12.5335 1.80736 12.4118C1.82407 12.2901 1.88414 12.1785 1.97653 12.0975L10.7949 4.29023C10.9201 4.17717 11.02 4.03897 11.088 3.88465C11.1561 3.73034 11.1909 3.56338 11.19 3.39472V1.42323L15.3982 3.96894C16.2157 4.45968 16.9547 5.07059 17.5905 5.78114C19.9326 8.40676 21.3747 11.7118 21.7067 15.2145C22.0387 18.7172 21.2432 22.2344 19.4362 25.2533C19.4251 25.2714 19.4155 25.2904 19.4075 25.3101L18.4648 27.4702H3.26032L3.32868 25.1863ZM1.25397 30.5505L1.8193 29.0466C1.88113 28.8843 1.99063 28.7446 2.13339 28.6458C2.27615 28.5469 2.44548 28.4936 2.61911 28.4929H18.9146C19.0882 28.4936 19.2576 28.5469 19.4003 28.6458C19.5431 28.7446 19.6526 28.8843 19.7144 29.0466L20.2818 30.5505H1.25397Z"
        fill="black" />
    <path fill-rule="evenodd" clip-rule="evenodd"
        d="M3.32868 25.1863L6.19977 22.657C7.77096 21.276 8.90433 19.466 9.46051 17.4494L10.0204 15.4786C11.9042 15.5276 13.7374 14.8652 15.1548 13.6233C15.2571 13.5336 15.3195 13.4069 15.3284 13.2711C15.3372 13.1354 15.2918 13.0017 15.202 12.8994C15.1123 12.7972 14.9856 12.7347 14.8498 12.7259C14.7141 12.717 14.5803 12.7625 14.4781 12.8522C13.2985 13.8828 11.7864 14.4527 10.22 14.4571C8.65364 14.4615 7.13836 13.9001 5.95299 12.8762C5.87905 12.8005 5.78351 12.7496 5.67948 12.7304C5.57545 12.7112 5.46803 12.7246 5.37194 12.7688L3.0942 13.8182C2.98212 13.8692 2.85544 13.8784 2.73716 13.844C2.61888 13.8097 2.51684 13.734 2.44957 13.6309L1.88561 12.76C1.81844 12.6571 1.79066 12.5335 1.80736 12.4118C1.82407 12.2901 1.88414 12.1785 1.97653 12.0975L10.7949 4.29023C10.9201 4.17717 11.02 4.03897 11.088 3.88465C11.1561 3.73034 11.1909 3.56338 11.19 3.39472V1.42323L15.3982 3.96894C16.2157 4.45968 16.9547 5.07059 17.5905 5.78114C19.9326 8.40676 21.3747 11.7118 21.7067 15.2145C22.0387 18.7172 21.2432 22.2344 19.4362 25.2533C19.4251 25.2714 19.4155 25.2904 19.4075 25.3101L18.4648 27.4702H3.26032L3.32868 25.1863ZM9.57328 6.99876C9.82622 6.82975 10.1236 6.73954 10.4278 6.73954C10.8356 6.74008 11.2265 6.90231 11.5148 7.19064C11.8031 7.47897 11.9653 7.86987 11.9659 8.27763C11.9659 8.58183 11.8757 8.8792 11.7067 9.13214C11.5377 9.38508 11.2974 9.58222 11.0164 9.69863C10.7353 9.81505 10.4261 9.84551 10.1277 9.78616C9.82937 9.72681 9.55531 9.58032 9.34021 9.36522C9.1251 9.15011 8.97861 8.87605 8.91926 8.57769C8.85992 8.27933 8.89038 7.97008 9.00679 7.68903C9.12321 7.40798 9.32034 7.16776 9.57328 6.99876ZM18.354 13.1384C18.41 13.1774 18.4577 13.2273 18.4942 13.285H18.4963C21.2785 17.4713 19.4075 20.5351 17.0368 24.4145C16.7688 24.8534 16.4913 25.308 16.2124 25.7769C16.1429 25.8939 16.0299 25.9784 15.8981 26.012C15.7663 26.0456 15.6266 26.0255 15.5096 25.956C15.3927 25.8866 15.3081 25.7736 15.2745 25.6418C15.241 25.51 15.2611 25.3703 15.3305 25.2533C15.6149 24.7782 15.8918 24.3216 16.1618 23.88C18.5092 20.0348 20.0603 17.4945 17.6404 13.8523C17.6014 13.7963 17.5739 13.7331 17.5596 13.6663C17.5454 13.5995 17.5446 13.5306 17.5574 13.4635C17.5701 13.3964 17.5961 13.3325 17.6339 13.2756C17.6717 13.2188 17.7204 13.17 17.7773 13.1322C17.8341 13.0944 17.898 13.0684 17.9651 13.0556C18.0321 13.0428 18.1011 13.0435 18.1679 13.0578C18.2346 13.072 18.2979 13.0994 18.354 13.1384Z"
        fill="black" />
    <path
        d="M1.25397 30.5505L1.8193 29.0466C1.88113 28.8843 1.99063 28.7446 2.13339 28.6458C2.27615 28.5469 2.44548 28.4936 2.61911 28.4929H18.9146C19.0882 28.4936 19.2576 28.5469 19.4003 28.6458C19.5431 28.7446 19.6526 28.8843 19.7144 29.0466L20.2818 30.5505H1.25397Z"
        fill="black" />
</svg>