<svg width="24" height="56" viewBox="0 0 24 56" fill="none" xmlns="http://www.w3.org/2000/svg">
<path d="M7.2 17H9.8C13 17 15 19 15 22.2V26.25H10.56L12.63 24.18C12.78 24.03 12.85 23.84 12.85 23.65C12.85 23.46 12.78 23.27 12.63 23.12C12.34 22.83 11.86 22.83 11.57 23.12L8.22 26.47C7.93 26.76 7.93 27.24 8.22 27.53L11.57 30.88C11.86 31.17 12.34 31.17 12.63 30.88C12.92 30.59 12.92 30.11 12.63 29.82L10.56 27.75H15V31.8C15 35 13 37 9.8 37H7.21C4.01 37 2.01 35 2.01 31.8V22.2C2 19 4 17 7.2 17Z" fill="#292D32"/>
<path d="M21.25 26.25C21.66 26.25 22 26.59 22 27C22 27.41 21.66 27.75 21.25 27.75H15V26.25H21.25Z" fill="#292D32"/>
</svg>
