<svg width="24" height="56" viewBox="0 0 24 56" fill="none" xmlns="http://www.w3.org/2000/svg">
<path d="M13.19 21H6.79C6.53 21 6.28 21.01 6.04 21.04C3.35 21.27 2 22.86 2 25.79V29.79C2 33.79 3.6 34.58 6.79 34.58H7.19C7.41 34.58 7.7 34.73 7.83 34.9L9.03 36.5C9.56 37.21 10.42 37.21 10.95 36.5L12.15 34.9C12.3 34.7 12.54 34.58 12.79 34.58H13.19C16.12 34.58 17.71 33.24 17.94 30.54C17.97 30.3 17.98 30.05 17.98 29.79V25.79C17.98 22.6 16.38 21 13.19 21ZM6.5 29C5.94 29 5.5 28.55 5.5 28C5.5 27.45 5.95 27 6.5 27C7.05 27 7.5 27.45 7.5 28C7.5 28.55 7.05 29 6.5 29ZM9.99 29C9.43 29 8.99 28.55 8.99 28C8.99 27.45 9.44 27 9.99 27C10.54 27 10.99 27.45 10.99 28C10.99 28.55 10.55 29 9.99 29ZM13.49 29C12.93 29 12.49 28.55 12.49 28C12.49 27.45 12.94 27 13.49 27C14.04 27 14.49 27.45 14.49 28C14.49 28.55 14.04 29 13.49 29Z" fill="#292D32"/>
<path d="M21.9802 21.79V25.79C21.9802 27.79 21.3602 29.15 20.1202 29.9C19.8202 30.08 19.4702 29.84 19.4702 29.49L19.4802 25.79C19.4802 21.79 17.1902 19.5 13.1902 19.5L7.10025 19.51C6.75025 19.51 6.51025 19.16 6.69025 18.86C7.44025 17.62 8.80025 17 10.7902 17H17.1902C20.3802 17 21.9802 18.6 21.9802 21.79Z" fill="#292D32"/>
</svg>
