<svg width="173" height="225" viewBox="0 0 173 225" fill="none" xmlns="http://www.w3.org/2000/svg">
<g opacity="0.8" filter="url(#filter0_d_172_9753)">
<path d="M80.1788 183.355C85.3162 178.143 91.7369 169.252 91.9797 164.786C92.2221 160.322 91.0778 154.863 91.0778 154.863C91.0778 154.863 94.736 156.533 95.8425 154.566C96.9501 152.597 90.5678 142.457 94.2738 130.81C97.9809 119.163 109.134 93.1067 109.134 93.1067C109.134 93.1067 110.949 93.7295 116.177 95.5243C121.404 97.318 124.24 86.2436 118.537 81.7506C118.413 81.6484 118.301 81.561 118.175 81.4627C118.199 81.4566 118.233 81.4483 118.256 81.4454L118.111 81.3962C120.126 78.3075 125.496 70.0466 127.962 65.9639C131.031 60.8851 145.931 60.4011 152.101 50.5809C158.274 40.7561 145.552 38.3952 143.328 37.632C141.105 36.8685 149.21 33.3104 145.92 32.1808C142.631 31.0522 138.972 29.588 138.972 29.588L142.092 24.4235L145.969 25.7536L147.503 23.2139L143.532 21.8507L145.871 17.9785L144.118 17.3619L107.604 77.7899L107.129 78.5774L105.911 80.5918L41.339 187.455L71.8415 197.924C71.8415 197.924 74.0224 196.245 74.1137 193.003C74.2037 189.76 75.0404 188.566 80.1788 183.355Z" fill="#585A5C"/>
<path d="M72.4647 196.121C77.1556 191.649 83.313 183.193 84.0646 177.885C84.8184 172.575 84.6141 165.559 84.6141 165.559C84.6141 165.559 87.2692 168.89 88.3858 166.907C89.5035 164.921 85.8011 150.345 90.2053 137.543C94.6182 124.728 106.745 97.059 106.745 97.059C106.745 97.059 108.075 98.486 111.905 102.594C115.734 106.702 119.399 94.2537 115.568 86.6644C115.485 86.4938 115.41 86.3463 115.325 86.1789C115.344 86.1811 115.372 86.183 115.39 86.1878L115.284 86.074C117.261 83.048 122.535 74.9463 124.996 70.8739C128.057 65.8079 139.653 70.7909 145.738 61.1108C151.826 51.4268 142.331 43.7255 140.719 41.9496C139.106 40.1753 145.848 38.8754 143.465 36.2451C141.082 33.6151 138.46 30.4344 138.46 30.4344L141.58 25.2719L144.384 28.3753L145.917 25.8388L143.044 22.6569L145.423 18.72L144.118 17.3621L107.604 77.79L107.129 78.5775L105.911 80.592L41.339 187.455L64.0887 210.754C64.0887 210.754 66.0153 209.497 66.4896 205.62C66.9635 201.742 67.7708 200.597 72.4647 196.121Z" fill="url(#paint0_linear_172_9753)"/>
<path d="M27.4411 150.276C29.7062 143.237 34.6151 133.379 38.3997 131.179C42.1806 128.985 47.4394 127.635 47.4394 127.635C47.4394 127.635 44.3695 124.991 45.5933 123.1C46.8188 121.209 58.4499 122.662 66.9306 114.142C75.4026 105.634 93.0808 83.977 93.0808 83.977C93.0808 83.977 91.7503 82.5513 87.9212 78.442C84.0909 74.3347 92.4419 66.8979 98.8037 70.3002C98.9458 70.3729 99.0696 70.4399 99.2093 70.5164C99.204 70.4905 99.1971 70.4558 99.1894 70.4337L99.295 70.5481C101.088 67.3356 105.892 58.7585 108.348 54.695C111.402 49.6399 105.388 35.4164 111.209 25.3932C117.034 15.3652 124.527 26.3767 126.14 28.1526C127.752 29.9275 127.335 20.7609 129.718 23.3913C132.101 26.0213 134.93 28.859 134.93 28.859L138.029 23.7291L135.225 20.6257L138.385 15.396L141.257 18.5779L142.786 16.0435L144.116 17.3626L106.973 78.8326L106.5 79.6144L105.292 81.6148L41.337 187.455L18.4318 164.414C18.4318 164.414 18.9258 161.666 21.717 160.138C24.5092 158.611 25.1785 157.313 27.4411 150.276Z" fill="url(#paint1_linear_172_9753)"/>
<path d="M19.9127 162.735C21.7565 156.393 26.4412 146.906 30.7515 143.836C35.06 140.769 41.2763 137.835 41.2763 137.835C41.2763 137.835 37.2018 136.853 38.4442 134.931C39.6886 133.009 54.0275 129.981 63.2531 120.228C72.477 110.475 91.2359 87.0298 91.2359 87.0298C91.2359 87.0298 89.4207 86.4063 84.1926 84.6121C78.9653 82.8167 88.1888 73.9361 96.4301 74.2281C96.6135 74.2324 96.774 74.2385 96.9555 74.246C96.9455 74.2278 96.932 74.2039 96.9198 74.1895L97.0647 74.2387C98.8331 71.0665 103.577 62.5891 106.044 58.5071C109.113 53.4283 99.8156 44.6386 105.595 34.6838C111.377 24.7262 122.091 30.4088 124.315 31.1721C126.538 31.9356 124.779 24.9907 128.069 26.1197C131.358 27.2495 135.225 28.369 135.225 28.369L138.346 23.2039L134.47 21.8738L136.005 19.3341L139.976 20.6973L142.356 16.7586L144.116 17.3626L107.569 77.8449L107.094 78.6324L105.876 80.6469L41.3365 187.456L10.8018 177.041C10.8018 177.041 11.0499 174.7 14.2359 172.518C17.4239 170.337 18.07 169.077 19.9127 162.735Z" fill="#B4B7BC"/>
</g>
<defs>
<filter id="filter0_d_172_9753" x="0.801758" y="9.396" width="162.973" height="215.358" filterUnits="userSpaceOnUse" color-interpolation-filters="sRGB">
<feFlood flood-opacity="0" result="BackgroundImageFix"/>
<feColorMatrix in="SourceAlpha" type="matrix" values="0 0 0 0 0 0 0 0 0 0 0 0 0 0 0 0 0 0 127 0" result="hardAlpha"/>
<feOffset dy="4"/>
<feGaussianBlur stdDeviation="5"/>
<feComposite in2="hardAlpha" operator="out"/>
<feColorMatrix type="matrix" values="0 0 0 0 0 0 0 0 0 0 0 0 0 0 0 0 0 0 0.25 0"/>
<feBlend mode="normal" in2="BackgroundImageFix" result="effect1_dropShadow_172_9753"/>
<feBlend mode="normal" in="SourceGraphic" in2="effect1_dropShadow_172_9753" result="shape"/>
</filter>
<linearGradient id="paint0_linear_172_9753" x1="90.6135" y1="105.907" x2="118.724" y2="122.893" gradientUnits="userSpaceOnUse">
<stop/>
<stop offset="0.1466" stop-color="#0D0D0D"/>
<stop offset="0.4384" stop-color="#222222"/>
<stop offset="0.7255" stop-color="#2F2F2F"/>
<stop offset="1" stop-color="#333333"/>
</linearGradient>
<linearGradient id="paint1_linear_172_9753" x1="98.7145" y1="113.583" x2="81.8574" y2="91.6454" gradientUnits="userSpaceOnUse">
<stop/>
<stop offset="0.1466" stop-color="#0D0D0D"/>
<stop offset="0.4384" stop-color="#222222"/>
<stop offset="0.7255" stop-color="#2F2F2F"/>
<stop offset="1" stop-color="#333333"/>
</linearGradient>
</defs>
</svg>
