<svg width="390" height="844" viewBox="0 0 390 844" fill="none" xmlns="http://www.w3.org/2000/svg">
<g clip-path="url(#clip0_83_14934)">
<rect width="390" height="844" fill="#141F1A"/>
<path d="M386.356 1028.23H432.85V1156.85H-20.85V1028.23H22.5688H22.7616L22.7142 1028.04L-19.8185 860.237C-20.471 857.663 -20.0562 854.934 -18.6682 852.669L282.847 360.807L282.987 360.579H282.719H258.093H258.01L257.966 360.65L76.8071 653.147L6.97626 629.67C5.17351 629.063 3.89138 627.46 3.69718 625.568L-20.8419 386.5L-5.36456 375.386L-5.22767 375.287L-5.34118 375.163L-19.5849 359.531C-20.3989 358.638 -20.85 357.473 -20.85 356.265V290.099C-20.85 234.954 23.8544 190.249 79 190.249H98.3408H98.4908V190.099V117.864C98.4908 115.261 100.601 113.15 103.205 113.15H170.736C315.498 113.15 432.85 230.502 432.85 375.264V966.098L386.236 1027.99L386.055 1028.23H386.356Z" stroke="#12CD75" stroke-opacity="0.2" stroke-width="0.3"/>
</g>
<defs>
<clipPath id="clip0_83_14934">
<rect width="390" height="844" fill="white"/>
</clipPath>
</defs>
</svg>
