<svg width="32" height="32" viewBox="0 0 32 32" fill="none" xmlns="http://www.w3.org/2000/svg">
<path d="M16.014 0.251953C15.8385 0.252086 15.6661 0.298337 15.5141 0.386108C15.3622 0.473879 15.2359 0.600068 15.1481 0.752014C15.0603 0.90396 15.014 1.07633 15.0138 1.25183C15.0136 1.42733 15.0595 1.59981 15.147 1.75195H14.74C14.145 1.7546 13.5753 1.99282 13.1555 2.41449C12.7357 2.83616 12.5 3.40694 12.5 4.00195C12.5 4.08795 12.516 4.16895 12.526 4.25195H12.129C11.503 4.25195 11 4.69795 11 5.25195C11 5.80595 11.503 6.25195 12.13 6.25195H12C12.5 6.75195 12.5 8.75195 12 9.25195H12.041C11.459 9.29195 11.001 9.70996 11.001 10.236C11.001 10.79 11.503 11.236 12.129 11.236H12.453V11.2479H13.842V11.236H13.518C12.892 11.236 12.388 10.79 12.388 10.236C12.388 9.70996 12.848 9.29295 13.43 9.25195H13.389C13.889 8.75195 13.889 6.75195 13.389 6.25195H13.518C12.892 6.25195 12.388 5.80595 12.388 5.25195C12.388 4.69795 12.892 4.25195 13.518 4.25195H13.914C13.905 4.16895 13.889 4.08795 13.889 4.00195C13.889 2.76495 14.375 1.75195 15.609 1.75195H15.502C15.1 1.18295 15.365 0.466963 16.067 0.261963C16.048 0.260963 16.032 0.251953 16.014 0.251953ZM16.069 0.263916C15.55 0.428916 15.563 1.15895 16 1.75195H16.016C16.016 1.75195 14.824 2.32795 14.889 4.00195C14.889 4.08795 14.905 4.16895 14.914 4.25195H14.518C14.361 4.25195 14.213 4.27996 14.078 4.32996C13.673 4.48196 13.388 4.83695 13.388 5.25195C13.388 5.80595 13.892 6.25195 14.518 6.25195H14.388C14.888 6.75195 14.888 8.75195 14.388 9.25195H14.43C13.848 9.29295 13.389 9.70996 13.389 10.236C13.389 10.791 13.892 11.236 14.518 11.236H14.842V11.2489H19.602V11.236H19.869C20.495 11.236 21 10.791 21 10.236C21 9.70996 20.54 9.29395 19.957 9.25195H20C19.5 8.75195 19.5 6.75195 20 6.25195H19.87C20.495 6.25195 21 5.80595 21 5.25195C21 4.69795 20.495 4.25195 19.87 4.25195H19.475C19.484 4.16895 19.5 4.08795 19.5 4.00195C19.4995 3.40676 19.2634 2.83598 18.8432 2.41437C18.4231 1.99275 17.8532 1.7546 17.258 1.75195H16.881C16.9655 1.60436 17.0107 1.43757 17.0124 1.26752C17.0141 1.09747 16.9722 0.929816 16.8906 0.780579C16.8091 0.631341 16.6907 0.505485 16.5466 0.415039C16.4026 0.324593 16.2388 0.272555 16.069 0.263916ZM12.397 12.2479C12.193 16.5249 11.703 20.2759 10.865 23.7479H11.74C12.578 20.2759 13.068 16.5249 13.272 12.2479H12.397ZM14.272 12.2479C14.068 16.5249 13.578 20.2759 12.74 23.7479H21.182C20.35 20.2779 19.878 16.5259 19.66 12.2479H14.272ZM10.619 24.7479L10.617 24.7579C9.517 24.7579 8.617 25.6589 8.617 26.7579C8.617 27.1239 8.725 27.4619 8.899 27.7579H8.625C7.496 27.7579 6.5 28.5579 6.5 29.6379V30.0599L6.502 30.074L6.5 30.5659V31.7479H7.375V30.5659L7.377 30.074C7.377 30.064 7.375 30.0629 7.375 30.0599V29.636C7.375 28.556 8.371 27.757 9.5 27.757H9.774C9.59216 27.4549 9.49477 27.1095 9.492 26.757C9.492 25.658 10.392 24.757 11.492 24.757L11.494 24.7469L10.619 24.7479ZM12.494 24.7479L12.492 24.7579C11.392 24.7579 10.492 25.6589 10.492 26.7579C10.492 27.1239 10.6 27.4619 10.774 27.7579H10.5C9.371 27.7579 8.375 28.5579 8.375 29.6379V30.0599L8.377 30.074L8.375 30.5659V31.7469H25.5V29.6289C25.5 28.5489 24.502 27.7489 23.373 27.7489H23.168C23.3494 27.4467 23.4465 27.1014 23.449 26.7489C23.449 25.6509 22.549 24.7489 21.449 24.7489H21.428L21.426 24.7389H12.494V24.7479Z" fill="#39D89C"/>
</svg>
