<svg width="390" height="410" viewBox="0 0 390 410" fill="none" xmlns="http://www.w3.org/2000/svg">
<rect width="390" height="410" fill="white"/>
<rect x="8" y="8" width="374" height="394" rx="10" fill="#F4F7FA"/>
<path d="M8 18C8 12.4772 12.4772 8 18 8H54.75V57.25H8V18Z" fill="#E8EDF9"/>
<path d="M21.2812 21.2861C21.2812 21.9059 21.1377 22.4277 20.8506 22.8516C20.5635 23.2754 20.1715 23.5967 19.6748 23.8154C19.1826 24.0296 18.6266 24.1367 18.0068 24.1367C17.387 24.1367 16.8288 24.0296 16.332 23.8154C15.8353 23.5967 15.4434 23.2754 15.1562 22.8516C14.8691 22.4277 14.7256 21.9059 14.7256 21.2861C14.7256 20.876 14.8053 20.5046 14.9648 20.1719C15.1243 19.8346 15.3499 19.5452 15.6416 19.3037C15.9378 19.0576 16.2842 18.8685 16.6807 18.7363C17.0817 18.6042 17.5192 18.5381 17.9932 18.5381C18.6221 18.5381 19.1849 18.6543 19.6816 18.8867C20.1784 19.1191 20.568 19.4404 20.8506 19.8506C21.1377 20.2607 21.2812 20.7393 21.2812 21.2861ZM19.627 21.2041C19.627 20.8714 19.5586 20.5798 19.4219 20.3291C19.2852 20.0785 19.0938 19.8848 18.8477 19.748C18.6016 19.6113 18.3167 19.543 17.9932 19.543C17.665 19.543 17.3802 19.6113 17.1387 19.748C16.8971 19.8848 16.708 20.0785 16.5713 20.3291C16.4391 20.5798 16.373 20.8714 16.373 21.2041C16.373 21.5413 16.4391 21.833 16.5713 22.0791C16.7035 22.3206 16.8926 22.5052 17.1387 22.6328C17.3848 22.7604 17.6742 22.8242 18.0068 22.8242C18.3395 22.8242 18.6266 22.7604 18.8682 22.6328C19.1097 22.5052 19.2965 22.3206 19.4287 22.0791C19.5609 21.833 19.627 21.5413 19.627 21.2041ZM21.0557 16.665C21.0557 17.1618 20.9235 17.6038 20.6592 17.9912C20.3994 18.3786 20.0394 18.6839 19.5791 18.9072C19.1188 19.126 18.5947 19.2354 18.0068 19.2354C17.4144 19.2354 16.8857 19.126 16.4209 18.9072C15.9606 18.6839 15.5983 18.3786 15.334 17.9912C15.0742 17.6038 14.9443 17.1618 14.9443 16.665C14.9443 16.0726 15.0742 15.5736 15.334 15.168C15.5983 14.7578 15.9606 14.4456 16.4209 14.2314C16.8812 14.0173 17.4076 13.9102 18 13.9102C18.5924 13.9102 19.1188 14.0173 19.5791 14.2314C20.0394 14.4456 20.3994 14.7578 20.6592 15.168C20.9235 15.5736 21.0557 16.0726 21.0557 16.665ZM19.4082 16.7197C19.4082 16.4235 19.349 16.1637 19.2305 15.9404C19.1165 15.7126 18.9548 15.5348 18.7451 15.4072C18.5355 15.2796 18.2871 15.2158 18 15.2158C17.7129 15.2158 17.4645 15.2773 17.2549 15.4004C17.0452 15.5234 16.8835 15.6966 16.7695 15.9199C16.6556 16.1432 16.5986 16.4098 16.5986 16.7197C16.5986 17.0251 16.6556 17.2917 16.7695 17.5195C16.8835 17.7428 17.0452 17.9183 17.2549 18.0459C17.4691 18.1735 17.7197 18.2373 18.0068 18.2373C18.2939 18.2373 18.5423 18.1735 18.752 18.0459C18.9616 17.9183 19.1234 17.7428 19.2373 17.5195C19.3512 17.2917 19.4082 17.0251 19.4082 16.7197Z" fill="#141F1A"/>
<path d="M26.5052 16.7214C26.86 16.7214 27.1927 16.8214 27.4792 16.996C27.7657 16.8214 28.0983 16.7214 28.4531 16.7214H33.8099C34.1647 16.7214 34.4973 16.8214 34.7839 16.996C35.0704 16.8214 35.403 16.7214 35.7578 16.7214H40.6276C41.7034 16.7214 42.5755 17.6402 42.5755 18.7735V23.3907C42.5755 24.0366 42.2868 24.6448 41.7964 25.0324L38.7906 27.4072L39.6417 35.4766C39.8671 37.613 40.8109 38.6968 42.1859 40.6282C42.4388 40.9834 42.5755 41.4154 42.5755 41.8595V45.9636C42.5755 47.097 41.7034 48.0157 40.6276 48.0157H21.6354C20.5596 48.0157 19.6875 47.097 19.6875 45.9636V41.8595C19.6875 41.4154 19.8242 40.9834 20.0771 40.6282C21.4521 38.6968 22.396 37.613 22.6213 35.4766L23.4724 27.4072L20.4667 25.0324C19.9762 24.6448 19.6875 24.0366 19.6875 23.3907V18.7735C19.6875 17.6402 20.5596 16.7214 21.6354 16.7214H26.5052Z" fill="#F4F7FA"/>
<path d="M21.6354 18.7734H26.5052V21.8516H28.4531V18.7734H33.8099V21.8516H35.7578V18.7734H40.6276V23.3906L36.7318 26.4687L37.7057 35.7031H24.5573L25.5312 26.4687L21.6354 23.3906V18.7734Z" fill="#34364C"/>
<path d="M24.5573 37.7552H37.7057L40.6276 41.8594V45.9635H21.6354V41.8594L24.5573 37.7552Z" fill="#34364C"/>
<rect width="46.75" height="49.25" transform="translate(8 106.5)" fill="#E8EDF9"/>
<path d="M19.75 112.485H19.9551V113.832H19.8389C19.251 113.832 18.7428 113.923 18.3145 114.105C17.8906 114.288 17.542 114.538 17.2686 114.857C16.9951 115.176 16.79 115.55 16.6533 115.979C16.5212 116.402 16.4551 116.854 16.4551 117.332V118.897C16.4551 119.294 16.4984 119.645 16.585 119.95C16.6715 120.251 16.7923 120.504 16.9473 120.709C17.1068 120.91 17.2891 121.062 17.4941 121.167C17.6992 121.272 17.9202 121.324 18.1572 121.324C18.4033 121.324 18.6266 121.274 18.8271 121.174C19.0277 121.069 19.1986 120.925 19.3398 120.743C19.4811 120.561 19.5882 120.344 19.6611 120.094C19.734 119.843 19.7705 119.57 19.7705 119.273C19.7705 118.991 19.734 118.727 19.6611 118.48C19.5928 118.23 19.4902 118.011 19.3535 117.824C19.2168 117.633 19.0459 117.485 18.8408 117.38C18.6403 117.271 18.4079 117.216 18.1436 117.216C17.8154 117.216 17.5169 117.293 17.248 117.448C16.9837 117.603 16.7695 117.806 16.6055 118.057C16.446 118.303 16.3594 118.565 16.3457 118.843L15.7168 118.638C15.7533 118.214 15.8467 117.833 15.9971 117.496C16.152 117.159 16.3548 116.872 16.6055 116.635C16.8561 116.398 17.1455 116.218 17.4736 116.095C17.8063 115.967 18.1709 115.903 18.5674 115.903C19.0505 115.903 19.4697 115.994 19.8252 116.177C20.1807 116.359 20.4746 116.607 20.707 116.922C20.944 117.232 21.1195 117.587 21.2334 117.988C21.3519 118.385 21.4111 118.799 21.4111 119.232C21.4111 119.711 21.3382 120.158 21.1924 120.572C21.0465 120.982 20.8324 121.342 20.5498 121.652C20.2718 121.962 19.9323 122.204 19.5312 122.377C19.1348 122.55 18.6836 122.637 18.1777 122.637C17.6445 122.637 17.1683 122.534 16.749 122.329C16.3343 122.124 15.9811 121.841 15.6895 121.481C15.4023 121.121 15.1836 120.707 15.0332 120.237C14.8828 119.768 14.8076 119.271 14.8076 118.747V118.063C14.8076 117.307 14.9033 116.594 15.0947 115.924C15.2861 115.249 15.5801 114.655 15.9766 114.14C16.3776 113.625 16.8903 113.221 17.5146 112.93C18.139 112.633 18.8841 112.485 19.75 112.485Z" fill="#141F1A"/>
<rect width="46.75" height="49.25" transform="translate(8 205)" fill="#E8EDF9"/>
<path d="M21.6299 217.452V218.765H14.4521L14.3975 217.773L18.6904 211.047H20.0098L18.5811 213.494L16.1133 217.452H21.6299ZM20.3857 211.047V221H18.7383V211.047H20.3857Z" fill="#141F1A"/>
<rect width="46.75" height="49.25" transform="translate(8 303.5)" fill="#E8EDF9"/>
<path d="M21.4453 318.188V319.5H14.7734V318.372L18.0137 314.838C18.3691 314.437 18.6494 314.09 18.8545 313.799C19.0596 313.507 19.2031 313.245 19.2852 313.013C19.3717 312.776 19.415 312.546 19.415 312.322C19.415 312.008 19.3558 311.732 19.2373 311.495C19.1234 311.254 18.9548 311.064 18.7314 310.928C18.5081 310.786 18.237 310.716 17.918 310.716C17.5488 310.716 17.2389 310.796 16.9883 310.955C16.7376 311.115 16.5485 311.336 16.4209 311.618C16.2933 311.896 16.2295 312.215 16.2295 312.575H14.582C14.582 311.996 14.7142 311.468 14.9785 310.989C15.2428 310.506 15.6257 310.123 16.127 309.841C16.6283 309.554 17.2321 309.41 17.9385 309.41C18.6038 309.41 19.1689 309.522 19.6338 309.745C20.0986 309.968 20.4518 310.285 20.6934 310.695C20.9395 311.105 21.0625 311.591 21.0625 312.151C21.0625 312.461 21.0124 312.769 20.9121 313.074C20.8118 313.38 20.6683 313.685 20.4814 313.99C20.2992 314.291 20.0827 314.594 19.832 314.899C19.5814 315.2 19.3057 315.506 19.0049 315.815L16.8516 318.188H21.4453Z" fill="#141F1A"/>
<path d="M25.0966 330.755C24.8642 331.089 24.5869 331.438 24.2637 331.796C23.1229 333.059 21.7238 334.099 20.8209 334.642L20.669 334.734C20.0621 335.099 19.6875 335.779 19.6875 336.515V341.464C19.6875 342.597 20.5596 343.516 21.6354 343.516H40.6276C41.7034 343.516 42.5755 342.597 42.5755 341.464V336.515C42.5755 335.779 42.201 335.099 41.594 334.734L41.4422 334.642C40.5392 334.099 39.1401 333.059 37.9993 331.796C37.6761 331.438 37.3988 331.089 37.1664 330.755C38.0213 330.538 38.6565 329.727 38.6565 328.76V325.42C38.6565 324.753 38.349 324.128 37.8319 323.743L37.0046 323.128C37.4819 322.151 37.7521 321.042 37.7521 319.868C37.7521 315.928 34.7205 312.734 30.9808 312.734C27.2411 312.734 24.2094 315.928 24.2094 319.868C24.2094 321.108 24.5107 322.275 25.0392 323.291L24.4311 323.743C23.914 324.128 23.6065 324.753 23.6065 325.42V328.76C23.6065 329.727 24.2417 330.538 25.0966 330.755Z" fill="#34364C"/>
<path d="M35.8042 319.868C35.8042 321.341 35.2086 322.669 34.2573 323.597L36.7086 325.42V328.76H34.3088C34.4246 330.308 35.3676 331.858 36.5879 333.21C37.8829 334.644 39.441 335.801 40.4757 336.424L40.6276 336.515V341.463H21.6354V336.515L21.7873 336.424C22.822 335.801 24.3801 334.644 25.6751 333.21C26.8954 331.858 27.8384 330.308 27.9542 328.76H25.5544V325.42L27.8374 323.722C26.8088 322.79 26.1574 321.409 26.1574 319.868C26.1574 317.061 28.3169 314.786 30.9808 314.786C33.6447 314.786 35.8042 317.061 35.8042 319.868Z" fill="#F4F7FA"/>
<rect width="46.75" height="49.25" transform="translate(8 57.25)" fill="#141F1A"/>
<path d="M21.3838 63.2969V64.1992L17.4053 73.25H15.6689L19.6406 64.6094H14.4863V63.2969H21.3838Z" fill="#E8EDF9"/>
<path d="M25.0966 84.5053C24.8642 84.8395 24.5869 85.1875 24.2637 85.5456C23.1229 86.8091 21.7238 87.8488 20.8209 88.3923L20.669 88.4838C20.0621 88.8491 19.6875 89.5291 19.6875 90.2655V95.2135C19.6875 96.3469 20.5596 97.2656 21.6354 97.2656H40.6276C41.7034 97.2656 42.5755 96.3469 42.5755 95.2135V90.2655C42.5755 89.5291 42.201 88.8491 41.594 88.4838L41.4422 88.3923C40.5392 87.8488 39.1401 86.8091 37.9993 85.5456C37.6761 85.1875 37.3988 84.8395 37.1664 84.5053C38.0213 84.2883 38.6565 83.4774 38.6565 82.5102V79.1698C38.6565 78.503 38.349 77.8778 37.8319 77.4933L37.0046 76.8781C37.4819 75.9009 37.7521 74.7921 37.7521 73.6178C37.7521 69.6781 34.7205 66.4844 30.9808 66.4844C27.2411 66.4844 24.2094 69.6781 24.2094 73.6178C24.2094 74.8582 24.5107 76.0251 25.0392 77.0411L24.4311 77.4933C23.914 77.8778 23.6065 78.503 23.6065 79.1698V82.5102C23.6065 83.4774 24.2417 84.2883 25.0966 84.5053Z" fill="#F4F7FA"/>
<path d="M35.8042 73.6177C35.8042 75.0915 35.2086 76.4187 34.2573 77.3468L36.7086 79.1697V82.5101H34.3088C34.4246 84.0585 35.3676 85.6081 36.5879 86.9597C37.8829 88.3942 39.441 89.5511 40.4757 90.174L40.6276 90.2654V95.2135H21.6354V90.2654L21.7873 90.174C22.822 89.5511 24.3801 88.3942 25.6751 86.9597C26.8954 85.6081 27.8384 84.0585 27.9542 82.5101H25.5544V79.1697L27.8374 77.472C26.8088 76.5401 26.1574 75.1591 26.1574 73.6177C26.1574 70.8114 28.3169 68.5364 30.9808 68.5364C33.6447 68.5364 35.8042 70.8114 35.8042 73.6177Z" fill="#34364C"/>
<rect width="46.75" height="49.25" transform="translate(8 155.75)" fill="#141F1A"/>
<path d="M16.5029 167.122L15.1904 166.801L15.7305 161.797H21.0967V163.191H17.0977L16.8242 165.632C16.9792 165.541 17.1934 165.452 17.4668 165.365C17.7402 165.274 18.0524 165.229 18.4033 165.229C18.8727 165.229 19.292 165.306 19.6611 165.461C20.0348 165.611 20.3516 165.832 20.6113 166.124C20.8711 166.411 21.0693 166.762 21.2061 167.177C21.3428 167.587 21.4111 168.049 21.4111 168.564C21.4111 169.025 21.3428 169.455 21.2061 169.856C21.0739 170.257 20.8734 170.611 20.6045 170.916C20.3356 171.221 19.9961 171.461 19.5859 171.634C19.1803 171.802 18.6995 171.887 18.1436 171.887C17.7288 171.887 17.3301 171.827 16.9473 171.709C16.569 171.586 16.2295 171.406 15.9287 171.169C15.6279 170.927 15.3864 170.631 15.2041 170.28C15.0218 169.925 14.917 169.517 14.8896 169.057H16.5029C16.5439 169.38 16.6328 169.656 16.7695 169.884C16.9108 170.107 17.0977 170.278 17.3301 170.396C17.5625 170.515 17.8314 170.574 18.1367 170.574C18.4147 170.574 18.654 170.526 18.8545 170.431C19.055 170.33 19.2214 170.189 19.3535 170.007C19.4902 169.82 19.5905 169.601 19.6543 169.351C19.7227 169.1 19.7568 168.822 19.7568 168.517C19.7568 168.225 19.7181 167.958 19.6406 167.717C19.5677 167.475 19.4561 167.266 19.3057 167.088C19.1598 166.91 18.9753 166.773 18.752 166.678C18.5286 166.577 18.2712 166.527 17.9795 166.527C17.5876 166.527 17.2868 166.584 17.0771 166.698C16.8721 166.812 16.6807 166.953 16.5029 167.122Z" fill="#E8EDF9"/>
<rect width="46.75" height="49.25" transform="translate(8 254.25)" fill="#141F1A"/>
<path d="M16.708 264.528H17.6924C18.0752 264.528 18.3919 264.462 18.6426 264.33C18.8978 264.198 19.0869 264.016 19.21 263.783C19.333 263.551 19.3945 263.284 19.3945 262.983C19.3945 262.669 19.3376 262.4 19.2236 262.177C19.1143 261.949 18.9456 261.773 18.7178 261.65C18.4945 261.527 18.2096 261.466 17.8633 261.466C17.5716 261.466 17.3073 261.525 17.0703 261.644C16.8379 261.757 16.6533 261.922 16.5166 262.136C16.3799 262.345 16.3115 262.596 16.3115 262.888H14.6572C14.6572 262.359 14.7962 261.89 15.0742 261.479C15.3522 261.069 15.7305 260.748 16.209 260.516C16.6921 260.279 17.2344 260.16 17.8359 260.16C18.4785 260.16 19.0391 260.267 19.5176 260.481C20.0007 260.691 20.3766 261.006 20.6455 261.425C20.9144 261.844 21.0488 262.364 21.0488 262.983C21.0488 263.266 20.9827 263.553 20.8506 263.845C20.7184 264.136 20.5225 264.403 20.2627 264.645C20.0029 264.882 19.6794 265.075 19.292 265.226C18.9046 265.371 18.4557 265.444 17.9453 265.444H16.708V264.528ZM16.708 265.813V264.911H17.9453C18.5286 264.911 19.0254 264.979 19.4355 265.116C19.8503 265.253 20.1875 265.442 20.4473 265.684C20.707 265.921 20.8962 266.192 21.0146 266.497C21.1377 266.802 21.1992 267.126 21.1992 267.468C21.1992 267.933 21.1149 268.347 20.9463 268.712C20.7822 269.072 20.5475 269.377 20.2422 269.628C19.9368 269.879 19.5791 270.068 19.1689 270.195C18.7633 270.323 18.3213 270.387 17.8428 270.387C17.4144 270.387 17.0042 270.327 16.6123 270.209C16.2204 270.09 15.8695 269.915 15.5596 269.683C15.2497 269.446 15.0036 269.152 14.8213 268.801C14.6436 268.445 14.5547 268.035 14.5547 267.57H16.2021C16.2021 267.867 16.2705 268.129 16.4072 268.356C16.5485 268.58 16.7445 268.755 16.9951 268.883C17.2503 269.01 17.542 269.074 17.8701 269.074C18.2165 269.074 18.515 269.013 18.7656 268.89C19.0163 268.767 19.2077 268.584 19.3398 268.343C19.4766 268.101 19.5449 267.81 19.5449 267.468C19.5449 267.08 19.4697 266.766 19.3193 266.524C19.1689 266.283 18.9548 266.105 18.6768 265.991C18.3988 265.873 18.0706 265.813 17.6924 265.813H16.708Z" fill="#E8EDF9"/>
<path d="M8 352.75H54.75V402H18C12.4772 402 8 397.523 8 392V352.75Z" fill="#141F1A"/>
<path d="M45.2461 387.123L42.2725 395.75H40.4746L44.2207 385.797H45.3691L45.2461 387.123ZM47.7344 395.75L44.7539 387.123L44.624 385.797H45.7793L49.5391 395.75H47.7344ZM47.5908 392.059V393.419H42.1768V392.059H47.5908Z" fill="#E8EDF9"/>
<path d="M19.2715 358.763V368.75H17.624V360.718L15.1836 361.545V360.185L19.0732 358.763H19.2715Z" fill="#E8EDF9"/>
<path d="M26.5052 361.471C26.86 361.471 27.1927 361.571 27.4792 361.746C27.7657 361.571 28.0983 361.471 28.4531 361.471H33.8099C34.1647 361.471 34.4973 361.571 34.7839 361.746C35.0704 361.571 35.403 361.471 35.7578 361.471H40.6276C41.7034 361.471 42.5755 362.39 42.5755 363.524V368.141C42.5755 368.787 42.2868 369.395 41.7964 369.782L38.7906 372.157L39.6417 380.227C39.8671 382.363 40.8109 383.447 42.1859 385.378C42.4388 385.733 42.5755 386.165 42.5755 386.609V390.714C42.5755 391.847 41.7034 392.766 40.6276 392.766H21.6354C20.5596 392.766 19.6875 391.847 19.6875 390.714V386.609C19.6875 386.165 19.8242 385.733 20.0771 385.378C21.4521 383.447 22.396 382.363 22.6213 380.227L23.4724 372.157L20.4667 369.782C19.9762 369.395 19.6875 368.787 19.6875 368.141V363.524C19.6875 362.39 20.5596 361.471 21.6354 361.471H26.5052Z" fill="#34364C"/>
<path d="M21.6354 363.523H26.5052V366.602H28.4531V363.523H33.8099V366.602H35.7578V363.523H40.6276V368.141L36.7318 371.219L37.7057 380.453H24.5573L25.5312 371.219L21.6354 368.141V363.523Z" fill="#F4F7FA"/>
<path d="M24.5573 382.505H37.7057L40.6276 386.609V390.714H21.6354V386.609L24.5573 382.505Z" fill="#F4F7FA"/>
<rect width="46.75" height="49.25" transform="translate(101.5 57.25)" fill="#141F1A"/>
<path d="M118.597 84.5053C118.364 84.8395 118.087 85.1875 117.764 85.5456C116.623 86.8091 115.224 87.8488 114.321 88.3923L114.169 88.4838C113.562 88.8491 113.188 89.5291 113.188 90.2655V95.2135C113.188 96.3469 114.06 97.2656 115.135 97.2656H134.128C135.203 97.2656 136.076 96.3469 136.076 95.2135V90.2655C136.076 89.5291 135.701 88.8491 135.094 88.4838L134.942 88.3923C134.039 87.8488 132.64 86.8091 131.499 85.5456C131.176 85.1875 130.899 84.8395 130.666 84.5053C131.521 84.2883 132.156 83.4774 132.156 82.5102V79.1698C132.156 78.503 131.849 77.8778 131.332 77.4933L130.505 76.8781C130.982 75.9009 131.252 74.7921 131.252 73.6178C131.252 69.6781 128.22 66.4844 124.481 66.4844C120.741 66.4844 117.709 69.6781 117.709 73.6178C117.709 74.8582 118.011 76.0251 118.539 77.0411L117.931 77.4933C117.414 77.8778 117.107 78.503 117.107 79.1698V82.5102C117.107 83.4774 117.742 84.2883 118.597 84.5053Z" fill="#F4F7FA"/>
<path d="M129.304 73.6177C129.304 75.0915 128.709 76.4187 127.757 77.3468L130.209 79.1697V82.5101H127.809C127.925 84.0585 128.868 85.6081 130.088 86.9597C131.383 88.3942 132.941 89.5511 133.976 90.174L134.128 90.2654V95.2135H115.135V90.2654L115.287 90.174C116.322 89.5511 117.88 88.3942 119.175 86.9597C120.395 85.6081 121.338 84.0585 121.454 82.5101H119.054V79.1697L121.337 77.472C120.309 76.5401 119.657 75.1591 119.657 73.6177C119.657 70.8114 121.817 68.5364 124.481 68.5364C127.145 68.5364 129.304 70.8114 129.304 73.6177Z" fill="#34364C"/>
<rect width="46.75" height="49.25" transform="translate(101.5 155.75)" fill="#141F1A"/>
<rect width="46.75" height="49.25" transform="translate(101.5 254.25)" fill="#141F1A"/>
<rect width="46.75" height="49.25" transform="translate(101.5 352.75)" fill="#141F1A"/>
<path d="M140.817 392.51H142.526C142.472 393.161 142.289 393.743 141.979 394.253C141.67 394.759 141.234 395.158 140.674 395.449C140.113 395.741 139.432 395.887 138.63 395.887C138.015 395.887 137.461 395.777 136.969 395.559C136.477 395.335 136.055 395.021 135.704 394.615C135.353 394.205 135.084 393.711 134.897 393.132C134.715 392.553 134.624 391.906 134.624 391.19V390.363C134.624 389.648 134.717 389.001 134.904 388.422C135.096 387.843 135.369 387.349 135.725 386.938C136.08 386.524 136.506 386.207 137.003 385.988C137.504 385.77 138.067 385.66 138.691 385.66C139.484 385.66 140.154 385.806 140.701 386.098C141.248 386.389 141.672 386.793 141.973 387.308C142.278 387.823 142.465 388.413 142.533 389.078H140.824C140.779 388.65 140.678 388.283 140.523 387.978C140.373 387.672 140.15 387.44 139.854 387.28C139.557 387.116 139.17 387.034 138.691 387.034C138.299 387.034 137.958 387.107 137.666 387.253C137.374 387.399 137.131 387.613 136.935 387.896C136.739 388.178 136.59 388.527 136.49 388.941C136.395 389.352 136.347 389.821 136.347 390.35V391.19C136.347 391.692 136.39 392.147 136.477 392.558C136.568 392.963 136.704 393.312 136.887 393.604C137.074 393.895 137.311 394.121 137.598 394.28C137.885 394.44 138.229 394.52 138.63 394.52C139.118 394.52 139.512 394.442 139.812 394.287C140.118 394.132 140.348 393.907 140.503 393.61C140.662 393.31 140.767 392.943 140.817 392.51Z" fill="#E8EDF9"/>
<path d="M120.158 367.568C119.962 367.002 119.855 366.39 119.855 365.753C119.855 362.822 122.111 360.445 124.894 360.445C127.676 360.445 129.932 362.822 129.932 365.753C129.932 366.612 129.737 367.426 129.392 368.145C129.889 368.182 130.372 368.418 130.724 368.841C132.636 371.144 134.31 374.428 134.31 378.233C134.31 380.954 133.421 382.97 132.22 384.423L134.502 384.845C135.433 385.017 136.113 385.869 136.113 386.866V390.714C136.113 391.258 135.908 391.78 135.542 392.165C135.177 392.549 134.682 392.766 134.165 392.766L115.622 392.766C114.547 392.766 113.674 391.847 113.674 390.714V386.866C113.674 385.87 114.353 385.019 115.283 384.845L117.342 384.462C116.124 383.006 115.22 380.979 115.22 378.233C115.22 375.264 116.312 372.678 117.593 370.697C118.398 369.451 119.31 368.393 120.158 367.568Z" fill="#34364C"/>
<path d="M125.849 377.962H123.901C123.901 374.194 124.986 370.432 127.386 367.679C127.762 367.139 127.984 366.474 127.984 365.753C127.984 363.955 126.601 362.497 124.894 362.497C123.187 362.497 121.803 363.955 121.803 365.753C121.803 366.64 122.14 367.444 122.686 368.032C120.756 369.481 117.168 373.368 117.168 378.233C117.168 383.143 120.822 385.131 122.739 385.539L115.622 386.866V390.713L134.165 390.713V386.866L126.88 385.52C128.818 385.07 132.362 383.069 132.362 378.233C132.362 375.067 130.962 372.245 129.258 370.193C127.386 371.732 125.849 375.323 125.849 377.962Z" fill="#F4F7FA"/>
<rect width="46.75" height="49.25" transform="translate(195 57.25)" fill="#141F1A"/>
<path d="M212.097 84.5053C211.864 84.8395 211.587 85.1875 211.264 85.5456C210.123 86.8091 208.724 87.8488 207.821 88.3923L207.669 88.4838C207.062 88.8491 206.688 89.5291 206.688 90.2655V95.2135C206.688 96.3469 207.56 97.2656 208.635 97.2656H227.628C228.703 97.2656 229.576 96.3469 229.576 95.2135V90.2655C229.576 89.5291 229.201 88.8491 228.594 88.4838L228.442 88.3923C227.539 87.8488 226.14 86.8091 224.999 85.5456C224.676 85.1875 224.399 84.8395 224.166 84.5053C225.021 84.2883 225.656 83.4774 225.656 82.5102V79.1698C225.656 78.503 225.349 77.8778 224.832 77.4933L224.005 76.8781C224.482 75.9009 224.752 74.7921 224.752 73.6178C224.752 69.6781 221.72 66.4844 217.981 66.4844C214.241 66.4844 211.209 69.6781 211.209 73.6178C211.209 74.8582 211.511 76.0251 212.039 77.0411L211.431 77.4933C210.914 77.8778 210.607 78.503 210.607 79.1698V82.5102C210.607 83.4774 211.242 84.2883 212.097 84.5053Z" fill="#F4F7FA"/>
<path d="M222.804 73.6177C222.804 75.0915 222.209 76.4187 221.257 77.3468L223.709 79.1697V82.5101H221.309C221.425 84.0585 222.368 85.6081 223.588 86.9597C224.883 88.3942 226.441 89.5511 227.476 90.174L227.628 90.2654V95.2135H208.635V90.2654L208.787 90.174C209.822 89.5511 211.38 88.3942 212.675 86.9597C213.895 85.6081 214.838 84.0585 214.954 82.5101H212.554V79.1697L214.837 77.472C213.809 76.5401 213.157 75.1591 213.157 73.6177C213.157 70.8114 215.317 68.5364 217.981 68.5364C220.645 68.5364 222.804 70.8114 222.804 73.6177Z" fill="#34364C"/>
<rect width="46.75" height="49.25" transform="translate(195 155.75)" fill="#141F1A"/>
<rect width="46.75" height="49.25" transform="translate(195 254.25)" fill="#141F1A"/>
<rect width="46.75" height="49.25" transform="translate(195 352.75)" fill="#141F1A"/>
<path d="M235.568 394.39V395.75H230.284V394.39H235.568ZM230.77 385.797V395.75H229.054V385.797H230.77ZM234.878 389.953V391.293H230.284V389.953H234.878ZM235.534 385.797V387.164H230.284V385.797H235.534Z" fill="#E8EDF9"/>
<g clip-path="url(#clip0_238_6906)">
<path fill-rule="evenodd" clip-rule="evenodd" d="M215.454 360.894C215.487 359.786 216.349 358.906 217.401 358.906H220.323C221.375 358.906 222.237 359.786 222.27 360.894L222.287 361.471H223.245C224.321 361.471 225.193 362.39 225.193 363.523V364.768C227.316 364.262 229.608 364.6 231.553 366.308C235.594 369.855 235.222 377.292 230.426 381.36C229.269 382.341 228.36 383.155 227.734 383.993C227.591 384.185 227.468 384.37 227.365 384.551L229.34 384.832C230.306 384.97 231.026 385.839 231.026 386.866V390.714C231.026 391.847 230.154 392.766 229.079 392.766H208.645C207.57 392.766 206.698 391.847 206.698 390.714V386.866C206.698 385.839 207.418 384.97 208.384 384.832L210.359 384.551C210.255 384.37 210.133 384.185 209.99 383.993C209.364 383.155 208.455 382.341 207.298 381.36C202.502 377.292 202.13 369.855 206.171 366.308C208.116 364.6 210.408 364.262 212.531 364.768V363.523C212.531 362.39 213.403 361.471 214.479 361.471H215.437L215.454 360.894Z" fill="#34364C"/>
<path fill-rule="evenodd" clip-rule="evenodd" d="M217.401 360.958H220.323L220.399 363.523H223.245V366.601H220.49L220.624 370.086C220.678 370.02 220.733 369.955 220.789 369.892C223.45 366.913 227.394 365.328 230.306 367.884C233.228 370.449 233.228 376.349 229.205 379.761C226.926 381.694 224.885 383.557 224.985 386.283L229.079 386.866V390.713H208.645V386.866L212.739 386.283C212.839 383.557 210.798 381.694 208.519 379.761C204.496 376.349 204.496 370.449 207.418 367.884C210.33 365.328 214.274 366.913 216.935 369.892C216.991 369.955 217.046 370.02 217.1 370.086L217.234 366.601H214.479V363.523H217.325L217.401 360.958ZM214.649 372.744C216.434 375.825 216.671 379.427 216.671 380.993C215.776 380.995 212.402 379.431 210.615 376.864C209.329 375.016 208.994 372.274 210.096 371.21C211.199 370.145 213.533 370.818 214.649 372.744ZM223.075 372.744C221.29 375.825 221.053 379.427 221.053 380.993C221.948 380.995 225.322 379.431 227.109 376.864C228.395 375.016 228.73 372.274 227.628 371.21C226.525 370.145 224.191 370.818 223.075 372.744Z" fill="#F4F7FA"/>
</g>
<rect width="46.75" height="49.25" transform="translate(288.5 57.25)" fill="#141F1A"/>
<path d="M305.597 84.5053C305.364 84.8395 305.087 85.1875 304.764 85.5456C303.623 86.8091 302.224 87.8488 301.321 88.3923L301.169 88.4838C300.562 88.8491 300.188 89.5291 300.188 90.2655V95.2135C300.188 96.3469 301.06 97.2656 302.135 97.2656H321.128C322.203 97.2656 323.076 96.3469 323.076 95.2135V90.2655C323.076 89.5291 322.701 88.8491 322.094 88.4838L321.942 88.3923C321.039 87.8488 319.64 86.8091 318.499 85.5456C318.176 85.1875 317.899 84.8395 317.666 84.5053C318.521 84.2883 319.156 83.4774 319.156 82.5102V79.1698C319.156 78.503 318.849 77.8778 318.332 77.4933L317.505 76.8781C317.982 75.9009 318.252 74.7921 318.252 73.6178C318.252 69.6781 315.22 66.4844 311.481 66.4844C307.741 66.4844 304.709 69.6781 304.709 73.6178C304.709 74.8582 305.011 76.0251 305.539 77.0411L304.931 77.4933C304.414 77.8778 304.107 78.503 304.107 79.1698V82.5102C304.107 83.4774 304.742 84.2883 305.597 84.5053Z" fill="#F4F7FA"/>
<path d="M316.304 73.6177C316.304 75.0915 315.709 76.4187 314.757 77.3468L317.209 79.1697V82.5101H314.809C314.925 84.0585 315.868 85.6081 317.088 86.9597C318.383 88.3942 319.941 89.5511 320.976 90.174L321.128 90.2654V95.2135H302.135V90.2654L302.287 90.174C303.322 89.5511 304.88 88.3942 306.175 86.9597C307.395 85.6081 308.338 84.0585 308.454 82.5101H306.054V79.1697L308.337 77.472C307.309 76.5401 306.657 75.1591 306.657 73.6177C306.657 70.8114 308.817 68.5364 311.481 68.5364C314.145 68.5364 316.304 70.8114 316.304 73.6177Z" fill="#34364C"/>
<rect width="46.75" height="49.25" transform="translate(288.5 155.75)" fill="#141F1A"/>
<rect width="46.75" height="49.25" transform="translate(288.5 254.25)" fill="#141F1A"/>
<rect width="46.75" height="49.25" transform="translate(288.5 352.75)" fill="#141F1A"/>
<path d="M329.383 390.664V394.465C329.242 394.652 329.021 394.857 328.72 395.08C328.424 395.299 328.029 395.488 327.537 395.647C327.045 395.807 326.432 395.887 325.698 395.887C325.074 395.887 324.502 395.782 323.982 395.572C323.463 395.358 323.014 395.046 322.636 394.636C322.262 394.226 321.973 393.727 321.768 393.139C321.562 392.546 321.46 391.872 321.46 391.115V390.425C321.46 389.673 321.553 389.003 321.74 388.415C321.932 387.823 322.205 387.321 322.561 386.911C322.916 386.501 323.344 386.191 323.846 385.981C324.352 385.767 324.924 385.66 325.562 385.66C326.377 385.66 327.052 385.797 327.585 386.07C328.123 386.339 328.537 386.713 328.829 387.191C329.121 387.67 329.305 388.217 329.383 388.832H327.701C327.646 388.486 327.539 388.176 327.38 387.902C327.225 387.629 327.002 387.415 326.71 387.26C326.423 387.1 326.049 387.021 325.589 387.021C325.192 387.021 324.844 387.096 324.543 387.246C324.242 387.396 323.992 387.618 323.791 387.909C323.595 388.201 323.447 388.556 323.347 388.976C323.246 389.395 323.196 389.873 323.196 390.411V391.115C323.196 391.662 323.253 392.147 323.367 392.571C323.486 392.995 323.654 393.353 323.873 393.645C324.096 393.936 324.368 394.157 324.687 394.308C325.006 394.453 325.366 394.526 325.767 394.526C326.159 394.526 326.48 394.494 326.73 394.431C326.981 394.362 327.179 394.283 327.325 394.191C327.476 394.096 327.592 394.005 327.674 393.918V391.942H325.603V390.664H329.383Z" fill="#E8EDF9"/>
<path d="M308.802 359.166C309.443 359.09 310.079 359.354 310.499 359.87L314.473 364.753C319.037 365.941 321.681 369.562 323.144 374.081C324.651 378.738 325.023 384.651 325.023 390.714C325.023 391.847 324.151 392.766 323.076 392.766H304.914C303.879 392.766 303.026 391.914 302.969 390.827C302.918 389.856 303.13 388.172 303.776 386.451L303.788 386.42C301.953 387.457 299.917 387.209 298.406 386.075C296.569 384.697 295.548 382 296.714 379.337C297.556 377.416 298.463 376.399 299.149 375.63C299.79 374.911 300.057 374.595 300.246 373.799C301.391 368.972 303.748 366.192 306.279 364.923C306.242 364.373 306.272 363.843 306.336 363.362C306.495 362.165 306.892 361.058 307.296 360.249C307.597 359.648 308.161 359.242 308.802 359.166Z" fill="#34364C"/>
<path fill-rule="evenodd" clip-rule="evenodd" d="M313.419 366.611L309.02 361.206C308.383 362.479 307.766 364.727 308.653 366.35C308.222 366.39 307.811 366.467 307.492 366.602C305.46 367.461 303.231 369.68 302.135 374.297C301.818 375.634 301.247 376.274 300.568 377.035C299.928 377.753 299.192 378.578 298.483 380.197C297.022 383.531 300.965 386.866 303.84 383.837C305.456 382.134 306.869 381.431 308.055 380.841C309.762 379.992 311 379.376 311.699 376.349C312.032 377.761 311.899 381.093 308.706 383.126C305.512 385.16 304.847 389.443 304.914 390.714H323.076C323.076 378.649 321.559 368.225 313.419 366.611Z" fill="#F4F7FA"/>
<ellipse cx="307.979" cy="372.758" rx="1.46094" ry="1.53906" fill="#34364C"/>
<rect width="46.75" height="49.25" transform="translate(195 8)" fill="#E8EDF9"/>
<g clip-path="url(#clip1_238_6906)">
<path fill-rule="evenodd" clip-rule="evenodd" d="M215.454 16.1442C215.487 15.0364 216.349 14.1562 217.401 14.1562H220.323C221.375 14.1562 222.237 15.0364 222.27 16.1442L222.287 16.7214H223.245C224.321 16.7214 225.193 17.6401 225.193 18.7734V20.0181C227.316 19.5119 229.608 19.85 231.553 21.5577C235.594 25.1053 235.222 32.5419 230.426 36.6096C229.269 37.5912 228.36 38.405 227.734 39.2435C227.591 39.4348 227.468 39.6199 227.365 39.801L229.34 40.0823C230.306 40.22 231.026 41.0888 231.026 42.1159V45.9635C231.026 47.0969 230.154 48.0156 229.079 48.0156H208.645C207.57 48.0156 206.698 47.0969 206.698 45.9635V42.1159C206.698 41.0888 207.418 40.22 208.384 40.0823L210.359 39.801C210.255 39.6199 210.133 39.4348 209.99 39.2435C209.364 38.405 208.455 37.5912 207.298 36.6096C202.502 32.5419 202.13 25.1053 206.171 21.5577C208.116 19.85 210.408 19.5119 212.531 20.0181V18.7734C212.531 17.6401 213.403 16.7214 214.479 16.7214H215.437L215.454 16.1442Z" fill="#F4F7FA"/>
<path fill-rule="evenodd" clip-rule="evenodd" d="M217.401 16.2083H220.323L220.399 18.7734H223.245V21.8515H220.49L220.624 25.3364C220.678 25.2702 220.733 25.2052 220.789 25.1417C223.45 22.1629 227.394 20.5778 230.306 23.134C233.228 25.6991 233.228 31.5989 229.205 35.0111C226.926 36.944 224.885 38.8073 224.985 41.5326L229.079 42.1158V45.9635H208.645V42.1158L212.739 41.5326C212.839 38.8073 210.798 36.9439 208.519 35.0111C204.496 31.5989 204.496 25.6991 207.418 23.134C210.33 20.5778 214.274 22.1629 216.935 25.1417C216.991 25.2052 217.046 25.2702 217.1 25.3364L217.234 21.8515H214.479V18.7734H217.325L217.401 16.2083ZM214.649 27.994C216.434 31.0751 216.671 34.677 216.671 36.2434C215.776 36.2451 212.402 34.6814 210.615 32.1143C209.329 30.2662 208.994 27.5242 210.096 26.4597C211.199 25.3952 213.533 26.0682 214.649 27.994ZM223.075 27.994C221.29 31.0751 221.053 34.677 221.053 36.2434C221.948 36.2451 225.322 34.6814 227.109 32.1143C228.395 30.2662 228.73 27.5242 227.628 26.4597C226.525 25.3952 224.191 26.0682 223.075 27.994Z" fill="#34364C"/>
</g>
<rect width="46.75" height="49.25" transform="translate(195 106.5)" fill="#E8EDF9"/>
<rect width="46.75" height="49.25" transform="translate(195 205)" fill="#E8EDF9"/>
<rect width="46.75" height="49.25" transform="translate(195 303.5)" fill="#E8EDF9"/>
<path d="M212.097 330.755C211.864 331.089 211.587 331.438 211.264 331.796C210.123 333.059 208.724 334.099 207.821 334.642L207.669 334.734C207.062 335.099 206.688 335.779 206.688 336.515V341.464C206.688 342.597 207.56 343.516 208.635 343.516H227.628C228.703 343.516 229.576 342.597 229.576 341.464V336.515C229.576 335.779 229.201 335.099 228.594 334.734L228.442 334.642C227.539 334.099 226.14 333.059 224.999 331.796C224.676 331.438 224.399 331.089 224.166 330.755C225.021 330.538 225.656 329.727 225.656 328.76V325.42C225.656 324.753 225.349 324.128 224.832 323.743L224.005 323.128C224.482 322.151 224.752 321.042 224.752 319.868C224.752 315.928 221.72 312.734 217.981 312.734C214.241 312.734 211.209 315.928 211.209 319.868C211.209 321.108 211.511 322.275 212.039 323.291L211.431 323.743C210.914 324.128 210.607 324.753 210.607 325.42V328.76C210.607 329.727 211.242 330.538 212.097 330.755Z" fill="#34364C"/>
<path d="M222.804 319.868C222.804 321.341 222.209 322.669 221.257 323.597L223.709 325.42V328.76H221.309C221.425 330.308 222.368 331.858 223.588 333.21C224.883 334.644 226.441 335.801 227.476 336.424L227.628 336.515V341.463H208.635V336.515L208.787 336.424C209.822 335.801 211.38 334.644 212.675 333.21C213.895 331.858 214.838 330.308 214.954 328.76H212.554V325.42L214.837 323.722C213.809 322.79 213.157 321.409 213.157 319.868C213.157 317.061 215.317 314.786 217.981 314.786C220.645 314.786 222.804 317.061 222.804 319.868Z" fill="#F4F7FA"/>
<rect width="46.75" height="49.25" transform="translate(101.5 8)" fill="#E8EDF9"/>
<path d="M120.158 22.818C119.962 22.2516 119.855 21.6401 119.855 21.0031C119.855 18.0717 122.111 15.6953 124.894 15.6953C127.676 15.6953 129.932 18.0717 129.932 21.0031C129.932 21.8618 129.737 22.6758 129.392 23.3955C129.889 23.4317 130.372 23.6676 130.724 24.0914C132.636 26.3942 134.31 29.6776 134.31 33.4833C134.31 36.2042 133.421 38.2203 132.22 39.673L134.502 40.0947C135.433 40.2668 136.113 41.1193 136.113 42.1159V45.9635C136.113 46.5078 135.908 47.0297 135.542 47.4146C135.177 47.7994 134.682 48.0156 134.165 48.0156L115.622 48.0156C114.547 48.0156 113.674 47.0969 113.674 45.9635V42.1159C113.674 41.1205 114.353 40.2686 115.283 40.0952L117.342 39.7115C116.124 38.2561 115.22 36.2286 115.22 33.4833C115.22 30.5141 116.312 27.9282 117.593 25.9465C118.398 24.7009 119.31 23.6434 120.158 22.818Z" fill="#F4F7FA"/>
<path d="M125.849 33.2119H123.901C123.901 29.4439 124.986 25.6822 127.386 22.9286C127.762 22.3894 127.984 21.7235 127.984 21.003C127.984 19.2049 126.601 17.7473 124.894 17.7473C123.187 17.7473 121.803 19.2049 121.803 21.003C121.803 21.8901 122.14 22.6944 122.686 23.2816C120.756 24.7315 117.168 28.6176 117.168 33.4832C117.168 38.3935 120.822 40.3814 122.739 40.7895L115.622 42.1158V45.9635L134.165 45.9635V42.1158L126.88 40.7697C128.818 40.3202 132.362 38.3187 132.362 33.4832C132.362 30.3171 130.962 27.4947 129.258 25.4426C127.386 26.9817 125.849 30.5728 125.849 33.2119Z" fill="#34364C"/>
<rect width="46.75" height="49.25" transform="translate(101.5 106.5)" fill="#E8EDF9"/>
<rect width="46.75" height="49.25" transform="translate(101.5 205)" fill="#E8EDF9"/>
<rect width="46.75" height="49.25" transform="translate(101.5 303.5)" fill="#E8EDF9"/>
<path d="M118.597 330.755C118.364 331.089 118.087 331.438 117.764 331.796C116.623 333.059 115.224 334.099 114.321 334.642L114.169 334.734C113.562 335.099 113.188 335.779 113.188 336.515V341.464C113.188 342.597 114.06 343.516 115.135 343.516H134.128C135.203 343.516 136.076 342.597 136.076 341.464V336.515C136.076 335.779 135.701 335.099 135.094 334.734L134.942 334.642C134.039 334.099 132.64 333.059 131.499 331.796C131.176 331.438 130.899 331.089 130.666 330.755C131.521 330.538 132.156 329.727 132.156 328.76V325.42C132.156 324.753 131.849 324.128 131.332 323.743L130.505 323.128C130.982 322.151 131.252 321.042 131.252 319.868C131.252 315.928 128.22 312.734 124.481 312.734C120.741 312.734 117.709 315.928 117.709 319.868C117.709 321.108 118.011 322.275 118.539 323.291L117.931 323.743C117.414 324.128 117.107 324.753 117.107 325.42V328.76C117.107 329.727 117.742 330.538 118.597 330.755Z" fill="#34364C"/>
<path d="M129.304 319.868C129.304 321.341 128.709 322.669 127.757 323.597L130.209 325.42V328.76H127.809C127.925 330.308 128.868 331.858 130.088 333.21C131.383 334.644 132.941 335.801 133.976 336.424L134.128 336.515V341.463H115.135V336.515L115.287 336.424C116.322 335.801 117.88 334.644 119.175 333.21C120.395 331.858 121.338 330.308 121.454 328.76H119.054V325.42L121.337 323.722C120.309 322.79 119.657 321.409 119.657 319.868C119.657 317.061 121.817 314.786 124.481 314.786C127.145 314.786 129.304 317.061 129.304 319.868Z" fill="#F4F7FA"/>
<rect width="46.75" height="49.25" transform="translate(288.5 8)" fill="#E8EDF9"/>
<path d="M308.802 14.4164C309.443 14.3405 310.079 14.6039 310.499 15.12L314.473 20.0031C319.037 21.1913 321.681 24.8117 323.144 29.3313C324.651 33.9884 325.023 39.9007 325.023 45.9636C325.023 47.097 324.151 48.0157 323.076 48.0157H304.914C303.879 48.0157 303.026 47.1644 302.969 46.0766C302.918 45.1059 303.13 43.4216 303.776 41.7012L303.788 41.6697C301.953 42.7071 299.917 42.4586 298.406 41.3249C296.569 39.9472 295.548 37.2502 296.714 34.5868C297.556 32.6662 298.463 31.6491 299.149 30.8799C299.79 30.1614 300.057 29.8454 300.246 29.0493C301.391 24.2223 303.748 21.4416 306.279 20.1726C306.242 19.6227 306.272 19.0929 306.336 18.6119C306.495 17.4146 306.892 16.3082 307.296 15.4993C307.597 14.8979 308.161 14.4924 308.802 14.4164Z" fill="#F4F7FA"/>
<path fill-rule="evenodd" clip-rule="evenodd" d="M313.419 21.8611L309.02 16.4556C308.383 17.7292 307.766 19.977 308.653 21.5998C308.222 21.6402 307.811 21.7169 307.492 21.8516C305.46 22.7105 303.231 24.9297 302.135 29.5469C301.818 30.8838 301.247 31.5241 300.568 32.285C299.928 33.0028 299.192 33.828 298.483 35.4466C297.022 38.7813 300.965 42.1159 303.84 39.0872C305.456 37.3844 306.869 36.6815 308.055 36.0913C309.762 35.2418 311 34.626 311.699 31.599C312.032 33.0109 311.899 36.3432 308.706 38.3765C305.512 40.4097 304.847 44.6927 304.914 45.9635H323.076C323.076 33.8989 321.559 23.4752 313.419 21.8611Z" fill="#34364C"/>
<ellipse cx="307.979" cy="28.0078" rx="1.46094" ry="1.53906" fill="#F4F7FA"/>
<rect width="46.75" height="49.25" transform="translate(288.5 106.5)" fill="#E8EDF9"/>
<rect width="46.75" height="49.25" transform="translate(288.5 205)" fill="#E8EDF9"/>
<rect width="46.75" height="49.25" transform="translate(288.5 303.5)" fill="#E8EDF9"/>
<path d="M305.597 330.755C305.364 331.089 305.087 331.438 304.764 331.796C303.623 333.059 302.224 334.099 301.321 334.642L301.169 334.734C300.562 335.099 300.188 335.779 300.188 336.515V341.464C300.188 342.597 301.06 343.516 302.135 343.516H321.128C322.203 343.516 323.076 342.597 323.076 341.464V336.515C323.076 335.779 322.701 335.099 322.094 334.734L321.942 334.642C321.039 334.099 319.64 333.059 318.499 331.796C318.176 331.438 317.899 331.089 317.666 330.755C318.521 330.538 319.156 329.727 319.156 328.76V325.42C319.156 324.753 318.849 324.128 318.332 323.743L317.505 323.128C317.982 322.151 318.252 321.042 318.252 319.868C318.252 315.928 315.22 312.734 311.481 312.734C307.741 312.734 304.709 315.928 304.709 319.868C304.709 321.108 305.011 322.275 305.539 323.291L304.931 323.743C304.414 324.128 304.107 324.753 304.107 325.42V328.76C304.107 329.727 304.742 330.538 305.597 330.755Z" fill="#34364C"/>
<path d="M316.304 319.868C316.304 321.341 315.709 322.669 314.757 323.597L317.209 325.42V328.76H314.809C314.925 330.308 315.868 331.858 317.088 333.21C318.383 334.644 319.941 335.801 320.976 336.424L321.128 336.515V341.463H302.135V336.515L302.287 336.424C303.322 335.801 304.88 334.644 306.175 333.21C307.395 331.858 308.338 330.308 308.454 328.76H306.054V325.42L308.337 323.722C307.309 322.79 306.657 321.409 306.657 319.868C306.657 317.061 308.817 314.786 311.481 314.786C314.145 314.786 316.304 317.061 316.304 319.868Z" fill="#F4F7FA"/>
<rect width="46.75" height="49.25" transform="translate(54.75 8)" fill="#141F1A"/>
<path d="M75.0521 14.4164C75.6933 14.3405 76.3286 14.6039 76.7486 15.12L80.7228 20.0031C85.2867 21.1913 87.9311 24.8117 89.3936 29.3313C90.9007 33.9884 91.2734 39.9007 91.2734 45.9636C91.2734 47.097 90.4013 48.0157 89.3255 48.0157H71.1636C70.1295 48.0157 69.2756 47.1644 69.2186 46.0766C69.1678 45.1059 69.3798 43.4216 70.0259 41.7012L70.0377 41.6697C68.2032 42.7071 66.1672 42.4586 64.6557 41.3249C62.8189 39.9472 61.7976 37.2502 62.9645 34.5868C63.8059 32.6662 64.7128 31.6491 65.3988 30.8799C66.0397 30.1614 66.3067 29.8454 66.4957 29.0493C67.6412 24.2223 69.9978 21.4416 72.5286 20.1726C72.492 19.6227 72.5217 19.0929 72.5858 18.6119C72.7451 17.4146 73.1419 16.3082 73.5463 15.4993C73.847 14.8979 74.4109 14.4924 75.0521 14.4164Z" fill="#F4F7FA"/>
<path fill-rule="evenodd" clip-rule="evenodd" d="M79.6691 21.8611L75.2698 16.4556C74.6329 17.7292 74.0156 19.977 74.9032 21.5998C74.4724 21.6402 74.0606 21.7169 73.7422 21.8516C71.7104 22.7105 69.4811 24.9297 68.3854 29.5469C68.0681 30.8838 67.4971 31.5241 66.8184 32.285C66.1782 33.0028 65.4422 33.828 64.7331 35.4466C63.2721 38.7813 67.2149 42.1159 70.0898 39.0872C71.7062 37.3844 73.119 36.6815 74.3052 36.0913C76.0125 35.2418 77.2502 34.626 77.9494 31.599C78.282 33.0109 78.1489 36.3432 74.9556 38.3765C71.7623 40.4097 71.0971 44.6927 71.1636 45.9635H89.3255C89.3255 33.8989 87.8093 23.4752 79.6691 21.8611Z" fill="#34364C"/>
<ellipse cx="74.2292" cy="28.0078" rx="1.46094" ry="1.53906" fill="#F4F7FA"/>
<rect width="46.75" height="49.25" transform="translate(54.75 106.5)" fill="#141F1A"/>
<rect width="46.75" height="49.25" transform="translate(54.75 205)" fill="#141F1A"/>
<rect width="46.75" height="49.25" transform="translate(54.75 303.5)" fill="#141F1A"/>
<path d="M71.8466 330.755C71.6142 331.089 71.3369 331.438 71.0137 331.796C69.8729 333.059 68.4738 334.099 67.5709 334.642L67.419 334.734C66.8121 335.099 66.4375 335.779 66.4375 336.515V341.464C66.4375 342.597 67.3096 343.516 68.3854 343.516H87.3776C88.4534 343.516 89.3255 342.597 89.3255 341.464V336.515C89.3255 335.779 88.951 335.099 88.344 334.734L88.1922 334.642C87.2892 334.099 85.8901 333.059 84.7493 331.796C84.4261 331.438 84.1488 331.089 83.9164 330.755C84.7713 330.538 85.4065 329.727 85.4065 328.76V325.42C85.4065 324.753 85.099 324.128 84.5819 323.743L83.7546 323.128C84.2319 322.151 84.5021 321.042 84.5021 319.868C84.5021 315.928 81.4705 312.734 77.7308 312.734C73.9911 312.734 70.9594 315.928 70.9594 319.868C70.9594 321.108 71.2607 322.275 71.7892 323.291L71.1811 323.743C70.664 324.128 70.3565 324.753 70.3565 325.42V328.76C70.3565 329.727 70.9917 330.538 71.8466 330.755Z" fill="#34364C"/>
<path d="M82.5542 319.868C82.5542 321.341 81.9586 322.669 81.0073 323.597L83.4586 325.42V328.76H81.0588C81.1746 330.308 82.1176 331.858 83.3379 333.21C84.6329 334.644 86.191 335.801 87.2257 336.424L87.3776 336.515V341.463H68.3854V336.515L68.5373 336.424C69.572 335.801 71.1301 334.644 72.4251 333.21C73.6454 331.858 74.5884 330.308 74.7042 328.76H72.3044V325.42L74.5874 323.722C73.5588 322.79 72.9074 321.409 72.9074 319.868C72.9074 317.061 75.0669 314.786 77.7308 314.786C80.3947 314.786 82.5542 317.061 82.5542 319.868Z" fill="#F4F7FA"/>
<rect width="46.75" height="49.25" transform="translate(54.75 57.25)" fill="#E8EDF9"/>
<path d="M71.8466 84.5053C71.6142 84.8395 71.3369 85.1875 71.0137 85.5456C69.8729 86.8091 68.4738 87.8488 67.5709 88.3923L67.419 88.4838C66.8121 88.8491 66.4375 89.5291 66.4375 90.2655V95.2135C66.4375 96.3469 67.3096 97.2656 68.3854 97.2656H87.3776C88.4534 97.2656 89.3255 96.3469 89.3255 95.2135V90.2655C89.3255 89.5291 88.951 88.8491 88.344 88.4838L88.1922 88.3923C87.2892 87.8488 85.8901 86.8091 84.7493 85.5456C84.4261 85.1875 84.1488 84.8395 83.9164 84.5053C84.7713 84.2883 85.4065 83.4774 85.4065 82.5102V79.1698C85.4065 78.503 85.099 77.8778 84.5819 77.4933L83.7546 76.8781C84.2319 75.9009 84.5021 74.7921 84.5021 73.6178C84.5021 69.6781 81.4705 66.4844 77.7308 66.4844C73.9911 66.4844 70.9594 69.6781 70.9594 73.6178C70.9594 74.8582 71.2607 76.0251 71.7892 77.0411L71.1811 77.4933C70.664 77.8778 70.3565 78.503 70.3565 79.1698V82.5102C70.3565 83.4774 70.9917 84.2883 71.8466 84.5053Z" fill="#F4F7FA"/>
<path d="M82.5542 73.6177C82.5542 75.0915 81.9586 76.4187 81.0073 77.3468L83.4586 79.1697V82.5101H81.0588C81.1746 84.0585 82.1176 85.6081 83.3379 86.9597C84.6329 88.3942 86.191 89.5511 87.2257 90.174L87.3776 90.2654V95.2135H68.3854V90.2654L68.5373 90.174C69.572 89.5511 71.1301 88.3942 72.4251 86.9597C73.6454 85.6081 74.5884 84.0585 74.7042 82.5101H72.3044V79.1697L74.5874 77.472C73.5588 76.5401 72.9074 75.1591 72.9074 73.6177C72.9074 70.8114 75.0669 68.5364 77.7308 68.5364C80.3947 68.5364 82.5542 70.8114 82.5542 73.6177Z" fill="#34364C"/>
<rect width="46.75" height="49.25" transform="translate(54.75 155.75)" fill="#E8EDF9"/>
<rect width="46.75" height="49.25" transform="translate(54.75 254.25)" fill="#E8EDF9"/>
<rect width="46.75" height="49.25" transform="translate(54.75 352.75)" fill="#E8EDF9"/>
<path d="M92.0713 391.252H89.5352L89.5215 390.001H91.7363C92.11 390.001 92.4268 389.946 92.6865 389.837C92.9508 389.723 93.1514 389.561 93.2881 389.352C93.4248 389.137 93.4932 388.88 93.4932 388.579C93.4932 388.246 93.4294 387.975 93.3018 387.766C93.1742 387.556 92.9782 387.403 92.7139 387.308C92.4541 387.212 92.1214 387.164 91.7158 387.164H90.0547V395.75H88.3389V385.797H91.7158C92.2627 385.797 92.7503 385.849 93.1787 385.954C93.6117 386.059 93.9785 386.223 94.2793 386.446C94.5846 386.665 94.8148 386.943 94.9697 387.28C95.1292 387.618 95.209 388.019 95.209 388.483C95.209 388.894 95.111 389.27 94.915 389.611C94.7191 389.949 94.4297 390.224 94.0469 390.438C93.6641 390.653 93.1878 390.78 92.6182 390.821L92.0713 391.252ZM91.9961 395.75H88.9951L89.7676 394.39H91.9961C92.3835 394.39 92.707 394.326 92.9668 394.198C93.2266 394.066 93.4202 393.886 93.5479 393.658C93.68 393.426 93.7461 393.155 93.7461 392.845C93.7461 392.521 93.6891 392.241 93.5752 392.004C93.4613 391.762 93.2812 391.578 93.0352 391.45C92.7891 391.318 92.4678 391.252 92.0713 391.252H90.1436L90.1572 390.001H92.666L93.0557 390.473C93.6025 390.491 94.0514 390.612 94.4023 390.835C94.7578 391.058 95.0221 391.348 95.1953 391.703C95.3685 392.059 95.4551 392.441 95.4551 392.852C95.4551 393.485 95.3161 394.016 95.0381 394.444C94.7646 394.873 94.3704 395.199 93.8555 395.422C93.3405 395.641 92.7207 395.75 91.9961 395.75Z" fill="#141F1A"/>
<path d="M75.0521 359.166C75.6933 359.09 76.3286 359.354 76.7486 359.87L80.7228 364.753C85.2867 365.941 87.9311 369.562 89.3936 374.081C90.9007 378.738 91.2734 384.651 91.2734 390.714C91.2734 391.847 90.4013 392.766 89.3255 392.766H71.1636C70.1295 392.766 69.2756 391.914 69.2186 390.827C69.1678 389.856 69.3798 388.172 70.0259 386.451L70.0377 386.42C68.2032 387.457 66.1672 387.209 64.6557 386.075C62.8189 384.697 61.7976 382 62.9645 379.337C63.8059 377.416 64.7128 376.399 65.3988 375.63C66.0397 374.911 66.3067 374.595 66.4957 373.799C67.6412 368.972 69.9978 366.192 72.5286 364.923C72.492 364.373 72.5217 363.843 72.5858 363.362C72.7451 362.165 73.1419 361.058 73.5463 360.249C73.847 359.648 74.4109 359.242 75.0521 359.166Z" fill="#34364C"/>
<path fill-rule="evenodd" clip-rule="evenodd" d="M79.6691 366.611L75.2698 361.206C74.6329 362.479 74.0156 364.727 74.9032 366.35C74.4724 366.39 74.0606 366.467 73.7422 366.602C71.7104 367.461 69.4811 369.68 68.3854 374.297C68.0681 375.634 67.4971 376.274 66.8184 377.035C66.1782 377.753 65.4422 378.578 64.7331 380.197C63.2721 383.531 67.2149 386.866 70.0898 383.837C71.7062 382.134 73.119 381.431 74.3052 380.841C76.0125 379.992 77.2502 379.376 77.9494 376.349C78.282 377.761 78.1489 381.093 74.9556 383.126C71.7623 385.16 71.0971 389.443 71.1636 390.714H89.3255C89.3255 378.649 87.8093 368.225 79.6691 366.611Z" fill="#F4F7FA"/>
<ellipse cx="74.2292" cy="372.758" rx="1.46094" ry="1.53906" fill="#34364C"/>
<rect width="46.75" height="49.25" transform="translate(148.25 57.25)" fill="#E8EDF9"/>
<path d="M165.347 84.5053C165.114 84.8395 164.837 85.1875 164.514 85.5456C163.373 86.8091 161.974 87.8488 161.071 88.3923L160.919 88.4838C160.312 88.8491 159.938 89.5291 159.938 90.2655V95.2135C159.938 96.3469 160.81 97.2656 161.885 97.2656H180.878C181.953 97.2656 182.826 96.3469 182.826 95.2135V90.2655C182.826 89.5291 182.451 88.8491 181.844 88.4838L181.692 88.3923C180.789 87.8488 179.39 86.8091 178.249 85.5456C177.926 85.1875 177.649 84.8395 177.416 84.5053C178.271 84.2883 178.906 83.4774 178.906 82.5102V79.1698C178.906 78.503 178.599 77.8778 178.082 77.4933L177.255 76.8781C177.732 75.9009 178.002 74.7921 178.002 73.6178C178.002 69.6781 174.97 66.4844 171.231 66.4844C167.491 66.4844 164.459 69.6781 164.459 73.6178C164.459 74.8582 164.761 76.0251 165.289 77.0411L164.681 77.4933C164.164 77.8778 163.857 78.503 163.857 79.1698V82.5102C163.857 83.4774 164.492 84.2883 165.347 84.5053Z" fill="#F4F7FA"/>
<path d="M176.054 73.6177C176.054 75.0915 175.459 76.4187 174.507 77.3468L176.959 79.1697V82.5101H174.559C174.675 84.0585 175.618 85.6081 176.838 86.9597C178.133 88.3942 179.691 89.5511 180.726 90.174L180.878 90.2654V95.2135H161.885V90.2654L162.037 90.174C163.072 89.5511 164.63 88.3942 165.925 86.9597C167.145 85.6081 168.088 84.0585 168.204 82.5101H165.804V79.1697L168.087 77.472C167.059 76.5401 166.407 75.1591 166.407 73.6177C166.407 70.8114 168.567 68.5364 171.231 68.5364C173.895 68.5364 176.054 70.8114 176.054 73.6177Z" fill="#34364C"/>
<rect width="46.75" height="49.25" transform="translate(148.25 155.75)" fill="#E8EDF9"/>
<rect width="46.75" height="49.25" transform="translate(148.25 254.25)" fill="#E8EDF9"/>
<rect width="46.75" height="49.25" transform="translate(148.25 352.75)" fill="#E8EDF9"/>
<path d="M184.58 395.75H182.454L182.468 394.39H184.58C185.195 394.39 185.71 394.255 186.125 393.986C186.544 393.717 186.859 393.332 187.068 392.831C187.283 392.33 187.39 391.733 187.39 391.04V390.5C187.39 389.962 187.328 389.486 187.205 389.071C187.087 388.657 186.909 388.308 186.672 388.025C186.439 387.743 186.152 387.529 185.811 387.383C185.473 387.237 185.084 387.164 184.642 387.164H182.413V385.797H184.642C185.302 385.797 185.906 385.909 186.453 386.132C187 386.351 187.472 386.667 187.868 387.082C188.269 387.497 188.577 387.993 188.791 388.572C189.005 389.151 189.112 389.798 189.112 390.514V391.04C189.112 391.756 189.005 392.403 188.791 392.981C188.577 393.56 188.269 394.057 187.868 394.472C187.467 394.882 186.989 395.199 186.433 395.422C185.881 395.641 185.264 395.75 184.58 395.75ZM183.404 385.797V395.75H181.688V385.797H183.404Z" fill="#141F1A"/>
<path d="M162.859 364.036C162.859 364.543 162.937 365.03 163.08 365.486L162.118 365.961C161.321 365.091 160.202 364.549 158.964 364.549C156.543 364.549 154.581 366.617 154.581 369.167C154.581 371.44 156.14 373.329 158.193 373.713L160.502 382.054C160.551 382.228 160.621 382.394 160.71 382.549L162.041 384.844L162.033 384.845C161.103 385.019 160.424 385.87 160.424 386.866V390.713C160.424 391.847 161.297 392.766 162.372 392.766L180.915 392.766C181.432 392.766 181.927 392.549 182.292 392.165C182.658 391.78 182.863 391.258 182.863 390.713V386.866C182.863 385.869 182.183 385.017 181.252 384.845L181.212 384.837L182.54 382.549C182.63 382.394 182.699 382.228 182.748 382.054L185.057 373.713C187.11 373.329 188.669 371.44 188.669 369.167C188.669 366.617 186.707 364.549 184.286 364.549C183.046 364.549 181.926 365.092 181.129 365.965L180.169 365.49C180.313 365.033 180.391 364.544 180.391 364.036C180.391 361.486 178.428 359.419 176.008 359.419C173.587 359.419 171.625 361.486 171.625 364.036C171.625 361.486 169.663 359.419 167.242 359.419C164.822 359.419 162.859 361.486 162.859 364.036Z" fill="#34364C"/>
<path d="M168.116 366.431C169.029 366.061 169.677 365.129 169.677 364.037C169.677 362.62 168.587 361.471 167.242 361.471C165.897 361.471 164.807 362.62 164.807 364.037C164.807 365.346 165.738 366.426 166.941 366.582L165.855 375.836L160.62 371.046C161.099 370.578 161.398 369.909 161.398 369.167C161.398 367.75 160.308 366.602 158.964 366.602C157.619 366.602 156.529 367.75 156.529 369.167C156.529 370.583 157.619 371.732 158.964 371.732C159.2 371.732 159.429 371.696 159.645 371.63L162.372 381.479L165.192 386.34L162.372 386.866V390.714L180.915 390.714V386.866L178.059 386.338L180.878 381.479L183.605 371.63C183.821 371.696 184.05 371.732 184.286 371.732C185.631 371.732 186.721 370.583 186.721 369.167C186.721 367.75 185.631 366.602 184.286 366.602C182.942 366.602 181.852 367.75 181.852 369.167C181.852 369.909 182.151 370.578 182.63 371.046L177.395 375.836L176.309 366.582C177.512 366.426 178.443 365.346 178.443 364.037C178.443 362.62 177.353 361.471 176.008 361.471C174.663 361.471 173.573 362.62 173.573 364.037C173.573 365.129 174.221 366.061 175.134 366.431L171.625 374.81L168.116 366.431Z" fill="#F4F7FA"/>
<rect width="46.75" height="49.25" transform="translate(241.75 57.25)" fill="#E8EDF9"/>
<path d="M258.847 84.5053C258.614 84.8395 258.337 85.1875 258.014 85.5456C256.873 86.8091 255.474 87.8488 254.571 88.3923L254.419 88.4838C253.812 88.8491 253.438 89.5291 253.438 90.2655V95.2135C253.438 96.3469 254.31 97.2656 255.385 97.2656H274.378C275.453 97.2656 276.326 96.3469 276.326 95.2135V90.2655C276.326 89.5291 275.951 88.8491 275.344 88.4838L275.192 88.3923C274.289 87.8488 272.89 86.8091 271.749 85.5456C271.426 85.1875 271.149 84.8395 270.916 84.5053C271.771 84.2883 272.406 83.4774 272.406 82.5102V79.1698C272.406 78.503 272.099 77.8778 271.582 77.4933L270.755 76.8781C271.232 75.9009 271.502 74.7921 271.502 73.6178C271.502 69.6781 268.47 66.4844 264.731 66.4844C260.991 66.4844 257.959 69.6781 257.959 73.6178C257.959 74.8582 258.261 76.0251 258.789 77.0411L258.181 77.4933C257.664 77.8778 257.357 78.503 257.357 79.1698V82.5102C257.357 83.4774 257.992 84.2883 258.847 84.5053Z" fill="#F4F7FA"/>
<path d="M269.554 73.6177C269.554 75.0915 268.959 76.4187 268.007 77.3468L270.459 79.1697V82.5101H268.059C268.175 84.0585 269.118 85.6081 270.338 86.9597C271.633 88.3942 273.191 89.5511 274.226 90.174L274.378 90.2654V95.2135H255.385V90.2654L255.537 90.174C256.572 89.5511 258.13 88.3942 259.425 86.9597C260.645 85.6081 261.588 84.0585 261.704 82.5101H259.304V79.1697L261.587 77.472C260.559 76.5401 259.907 75.1591 259.907 73.6177C259.907 70.8114 262.067 68.5364 264.731 68.5364C267.395 68.5364 269.554 70.8114 269.554 73.6177Z" fill="#34364C"/>
<rect width="46.75" height="49.25" transform="translate(241.75 155.75)" fill="#E8EDF9"/>
<rect width="46.75" height="49.25" transform="translate(241.75 254.25)" fill="#E8EDF9"/>
<rect width="46.75" height="49.25" transform="translate(241.75 352.75)" fill="#E8EDF9"/>
<path d="M277.622 385.797V395.75H275.906V385.797H277.622ZM281.683 390.151V391.512H277.185V390.151H281.683ZM282.25 385.797V387.164H277.185V385.797H282.25Z" fill="#141F1A"/>
<path d="M260.408 367.568C260.212 367.002 260.105 366.39 260.105 365.753C260.105 362.822 262.361 360.445 265.144 360.445C267.926 360.445 270.182 362.822 270.182 365.753C270.182 366.612 269.987 367.426 269.642 368.145C270.139 368.182 270.622 368.418 270.974 368.841C272.886 371.144 274.56 374.428 274.56 378.233C274.56 380.954 273.671 382.97 272.47 384.423L274.752 384.845C275.683 385.017 276.363 385.869 276.363 386.866V390.714C276.363 391.258 276.158 391.78 275.792 392.165C275.427 392.549 274.932 392.766 274.415 392.766L255.872 392.766C254.797 392.766 253.924 391.847 253.924 390.714V386.866C253.924 385.87 254.603 385.019 255.533 384.845L257.592 384.462C256.374 383.006 255.47 380.979 255.47 378.233C255.47 375.264 256.562 372.678 257.843 370.697C258.648 369.451 259.56 368.393 260.408 367.568Z" fill="#34364C"/>
<path d="M266.099 377.962H264.151C264.151 374.194 265.236 370.432 267.636 367.679C268.012 367.139 268.234 366.474 268.234 365.753C268.234 363.955 266.851 362.497 265.144 362.497C263.437 362.497 262.053 363.955 262.053 365.753C262.053 366.64 262.39 367.444 262.936 368.032C261.006 369.481 257.418 373.368 257.418 378.233C257.418 383.143 261.072 385.131 262.989 385.539L255.872 386.866V390.713L274.415 390.713V386.866L267.13 385.52C269.068 385.07 272.612 383.069 272.612 378.233C272.612 375.067 271.212 372.245 269.508 370.193C267.636 371.732 266.099 375.323 266.099 377.962Z" fill="#F4F7FA"/>
<rect width="46.75" height="49.25" transform="translate(335.25 57.25)" fill="#E8EDF9"/>
<path d="M352.347 84.5053C352.114 84.8395 351.837 85.1875 351.514 85.5456C350.373 86.8091 348.974 87.8488 348.071 88.3923L347.919 88.4838C347.312 88.8491 346.938 89.5291 346.938 90.2655V95.2135C346.938 96.3469 347.81 97.2656 348.885 97.2656H367.878C368.953 97.2656 369.826 96.3469 369.826 95.2135V90.2655C369.826 89.5291 369.451 88.8491 368.844 88.4838L368.692 88.3923C367.789 87.8488 366.39 86.8091 365.249 85.5456C364.926 85.1875 364.649 84.8395 364.416 84.5053C365.271 84.2883 365.906 83.4774 365.906 82.5102V79.1698C365.906 78.503 365.599 77.8778 365.082 77.4933L364.255 76.8781C364.732 75.9009 365.002 74.7921 365.002 73.6178C365.002 69.6781 361.97 66.4844 358.231 66.4844C354.491 66.4844 351.459 69.6781 351.459 73.6178C351.459 74.8582 351.761 76.0251 352.289 77.0411L351.681 77.4933C351.164 77.8778 350.857 78.503 350.857 79.1698V82.5102C350.857 83.4774 351.492 84.2883 352.347 84.5053Z" fill="#F4F7FA"/>
<path d="M363.054 73.6177C363.054 75.0915 362.459 76.4187 361.507 77.3468L363.959 79.1697V82.5101H361.559C361.675 84.0585 362.618 85.6081 363.838 86.9597C365.133 88.3942 366.691 89.5511 367.726 90.174L367.878 90.2654V95.2135H348.885V90.2654L349.037 90.174C350.072 89.5511 351.63 88.3942 352.925 86.9597C354.145 85.6081 355.088 84.0585 355.204 82.5101H352.804V79.1697L355.087 77.472C354.059 76.5401 353.407 75.1591 353.407 73.6177C353.407 70.8114 355.567 68.5364 358.231 68.5364C360.895 68.5364 363.054 70.8114 363.054 73.6177Z" fill="#34364C"/>
<rect width="46.75" height="49.25" transform="translate(335.25 155.75)" fill="#E8EDF9"/>
<rect width="46.75" height="49.25" transform="translate(335.25 254.25)" fill="#E8EDF9"/>
<path d="M335.25 352.75H382V392C382 397.523 377.523 402 372 402H335.25V352.75Z" fill="#E8EDF9"/>
<path d="M374.868 389.953V391.313H369.584V389.953H374.868ZM370.008 385.797V395.75H368.292V385.797H370.008ZM376.188 385.797V395.75H374.479V385.797H376.188Z" fill="#141F1A"/>
<path d="M353.755 361.471C354.11 361.471 354.443 361.571 354.729 361.746C355.016 361.571 355.348 361.471 355.703 361.471H361.06C361.415 361.471 361.747 361.571 362.034 361.746C362.32 361.571 362.653 361.471 363.008 361.471H367.878C368.953 361.471 369.826 362.39 369.826 363.524V368.141C369.826 368.787 369.537 369.395 369.046 369.782L366.041 372.157L366.892 380.227C367.117 382.363 368.061 383.447 369.436 385.378C369.689 385.733 369.826 386.165 369.826 386.609V390.714C369.826 391.847 368.953 392.766 367.878 392.766H348.885C347.81 392.766 346.938 391.847 346.938 390.714V386.609C346.938 386.165 347.074 385.733 347.327 385.378C348.702 383.447 349.646 382.363 349.871 380.227L350.722 372.157L347.717 369.782C347.226 369.395 346.938 368.787 346.938 368.141V363.524C346.938 362.39 347.81 361.471 348.885 361.471H353.755Z" fill="#34364C"/>
<path d="M348.885 363.523H353.755V366.602H355.703V363.523H361.06V366.602H363.008V363.523H367.878V368.141L363.982 371.219L364.956 380.453H351.807L352.781 371.219L348.885 368.141V363.523Z" fill="#F4F7FA"/>
<path d="M351.807 382.505H364.956L367.878 386.609V390.714H348.885V386.609L351.807 382.505Z" fill="#F4F7FA"/>
<rect width="46.75" height="49.25" transform="translate(241.75 8)" fill="#141F1A"/>
<path d="M260.408 22.818C260.212 22.2516 260.105 21.6401 260.105 21.0031C260.105 18.0717 262.361 15.6953 265.144 15.6953C267.926 15.6953 270.182 18.0717 270.182 21.0031C270.182 21.8618 269.987 22.6758 269.642 23.3955C270.139 23.4317 270.622 23.6676 270.974 24.0914C272.886 26.3942 274.56 29.6776 274.56 33.4833C274.56 36.2042 273.671 38.2203 272.47 39.673L274.752 40.0947C275.683 40.2668 276.363 41.1193 276.363 42.1159V45.9635C276.363 46.5078 276.158 47.0297 275.792 47.4146C275.427 47.7994 274.932 48.0156 274.415 48.0156L255.872 48.0156C254.797 48.0156 253.924 47.0969 253.924 45.9635V42.1159C253.924 41.1205 254.603 40.2686 255.533 40.0952L257.592 39.7115C256.374 38.2561 255.47 36.2286 255.47 33.4833C255.47 30.5141 256.562 27.9282 257.843 25.9465C258.648 24.7009 259.56 23.6434 260.408 22.818Z" fill="#F4F7FA"/>
<path d="M266.099 33.2119H264.151C264.151 29.4439 265.236 25.6822 267.636 22.9286C268.012 22.3894 268.234 21.7235 268.234 21.003C268.234 19.2049 266.851 17.7473 265.144 17.7473C263.437 17.7473 262.053 19.2049 262.053 21.003C262.053 21.8901 262.39 22.6944 262.936 23.2816C261.006 24.7315 257.418 28.6176 257.418 33.4832C257.418 38.3935 261.072 40.3814 262.989 40.7895L255.872 42.1158V45.9635L274.415 45.9635V42.1158L267.13 40.7697C269.068 40.3202 272.612 38.3187 272.612 33.4832C272.612 30.3171 271.212 27.4947 269.508 25.4426C267.636 26.9817 266.099 30.5728 266.099 33.2119Z" fill="#34364C"/>
<rect width="46.75" height="49.25" transform="translate(241.75 106.5)" fill="#141F1A"/>
<rect width="46.75" height="49.25" transform="translate(241.75 205)" fill="#141F1A"/>
<rect width="46.75" height="49.25" transform="translate(241.75 303.5)" fill="#141F1A"/>
<path d="M258.847 330.755C258.614 331.089 258.337 331.438 258.014 331.796C256.873 333.059 255.474 334.099 254.571 334.642L254.419 334.734C253.812 335.099 253.438 335.779 253.438 336.515V341.464C253.438 342.597 254.31 343.516 255.385 343.516H274.378C275.453 343.516 276.326 342.597 276.326 341.464V336.515C276.326 335.779 275.951 335.099 275.344 334.734L275.192 334.642C274.289 334.099 272.89 333.059 271.749 331.796C271.426 331.438 271.149 331.089 270.916 330.755C271.771 330.538 272.406 329.727 272.406 328.76V325.42C272.406 324.753 272.099 324.128 271.582 323.743L270.755 323.128C271.232 322.151 271.502 321.042 271.502 319.868C271.502 315.928 268.47 312.734 264.731 312.734C260.991 312.734 257.959 315.928 257.959 319.868C257.959 321.108 258.261 322.275 258.789 323.291L258.181 323.743C257.664 324.128 257.357 324.753 257.357 325.42V328.76C257.357 329.727 257.992 330.538 258.847 330.755Z" fill="#34364C"/>
<path d="M269.554 319.868C269.554 321.341 268.959 322.669 268.007 323.597L270.459 325.42V328.76H268.059C268.175 330.308 269.118 331.858 270.338 333.21C271.633 334.644 273.191 335.801 274.226 336.424L274.378 336.515V341.463H255.385V336.515L255.537 336.424C256.572 335.801 258.13 334.644 259.425 333.21C260.645 331.858 261.588 330.308 261.704 328.76H259.304V325.42L261.587 323.722C260.559 322.79 259.907 321.409 259.907 319.868C259.907 317.061 262.067 314.786 264.731 314.786C267.395 314.786 269.554 317.061 269.554 319.868Z" fill="#F4F7FA"/>
<rect width="46.75" height="49.25" transform="translate(148.25 8)" fill="#141F1A"/>
<path d="M162.859 19.2864C162.859 19.7929 162.937 20.2803 163.08 20.7361L162.118 21.2113C161.321 20.3408 160.202 19.7994 158.964 19.7994C156.543 19.7994 154.581 21.8666 154.581 24.4166C154.581 26.6897 156.14 28.5791 158.193 28.9627L160.502 37.3037C160.551 37.4778 160.621 37.6444 160.71 37.7992L162.041 40.0936L162.033 40.0951C161.103 40.2685 160.424 41.1204 160.424 42.1158V45.9635C160.424 47.0968 161.297 48.0155 162.372 48.0155L180.915 48.0155C181.432 48.0155 181.927 47.7993 182.292 47.4145C182.658 47.0297 182.863 46.5077 182.863 45.9635V42.1158C182.863 41.1192 182.183 40.2667 181.252 40.0946L181.212 40.0873L182.54 37.7992C182.63 37.6444 182.699 37.4778 182.748 37.3037L185.057 28.9627C187.11 28.5791 188.669 26.6897 188.669 24.4166C188.669 21.8666 186.707 19.7994 184.286 19.7994C183.046 19.7994 181.926 20.3422 181.129 21.2145L180.169 20.7402C180.313 20.2832 180.391 19.7944 180.391 19.2864C180.391 16.7364 178.428 14.6692 176.008 14.6692C173.587 14.6692 171.625 16.7364 171.625 19.2864C171.625 16.7364 169.663 14.6692 167.242 14.6692C164.822 14.6692 162.859 16.7364 162.859 19.2864Z" fill="#F4F7FA"/>
<path d="M168.116 21.6814C169.029 21.3114 169.677 20.3787 169.677 19.2865C169.677 17.8699 168.587 16.7214 167.242 16.7214C165.897 16.7214 164.807 17.8699 164.807 19.2865C164.807 20.5957 165.738 21.6758 166.941 21.8322L165.855 31.086L160.62 26.2965C161.099 25.8281 161.398 25.1593 161.398 24.4168C161.398 23.0001 160.308 21.8516 158.964 21.8516C157.619 21.8516 156.529 23.0001 156.529 24.4168C156.529 25.8334 157.619 26.9819 158.964 26.9819C159.2 26.9819 159.429 26.9463 159.645 26.8799L162.372 36.7293L165.192 41.5904L162.372 42.116V45.9636L180.915 45.9636V42.116L178.059 41.5883L180.878 36.7293L183.605 26.8799C183.821 26.9463 184.05 26.9819 184.286 26.9819C185.631 26.9819 186.721 25.8334 186.721 24.4168C186.721 23.0001 185.631 21.8516 184.286 21.8516C182.942 21.8516 181.852 23.0001 181.852 24.4168C181.852 25.1593 182.151 25.8281 182.63 26.2965L177.395 31.086L176.309 21.8322C177.512 21.6758 178.443 20.5957 178.443 19.2865C178.443 17.8699 177.353 16.7214 176.008 16.7214C174.663 16.7214 173.573 17.8699 173.573 19.2865C173.573 20.3787 174.221 21.3114 175.134 21.6814L171.625 30.06L168.116 21.6814Z" fill="#34364C"/>
<rect width="46.75" height="49.25" transform="translate(148.25 106.5)" fill="#141F1A"/>
<rect width="46.75" height="49.25" transform="translate(148.25 205)" fill="#141F1A"/>
<rect width="46.75" height="49.25" transform="translate(148.25 303.5)" fill="#141F1A"/>
<path d="M165.347 330.755C165.114 331.089 164.837 331.438 164.514 331.796C163.373 333.059 161.974 334.099 161.071 334.642L160.919 334.734C160.312 335.099 159.938 335.779 159.938 336.515V341.464C159.938 342.597 160.81 343.516 161.885 343.516H180.878C181.953 343.516 182.826 342.597 182.826 341.464V336.515C182.826 335.779 182.451 335.099 181.844 334.734L181.692 334.642C180.789 334.099 179.39 333.059 178.249 331.796C177.926 331.438 177.649 331.089 177.416 330.755C178.271 330.538 178.906 329.727 178.906 328.76V325.42C178.906 324.753 178.599 324.128 178.082 323.743L177.255 323.128C177.732 322.151 178.002 321.042 178.002 319.868C178.002 315.928 174.97 312.734 171.231 312.734C167.491 312.734 164.459 315.928 164.459 319.868C164.459 321.108 164.761 322.275 165.289 323.291L164.681 323.743C164.164 324.128 163.857 324.753 163.857 325.42V328.76C163.857 329.727 164.492 330.538 165.347 330.755Z" fill="#34364C"/>
<path d="M176.054 319.868C176.054 321.341 175.459 322.669 174.507 323.597L176.959 325.42V328.76H174.559C174.675 330.308 175.618 331.858 176.838 333.21C178.133 334.644 179.691 335.801 180.726 336.424L180.878 336.515V341.463H161.885V336.515L162.037 336.424C163.072 335.801 164.63 334.644 165.925 333.21C167.145 331.858 168.088 330.308 168.204 328.76H165.804V325.42L168.087 323.722C167.059 322.79 166.407 321.409 166.407 319.868C166.407 317.061 168.567 314.786 171.231 314.786C173.895 314.786 176.054 317.061 176.054 319.868Z" fill="#F4F7FA"/>
<path d="M335.25 8H372C377.523 8 382 12.4772 382 18V57.25H335.25V8Z" fill="#141F1A"/>
<path d="M353.755 16.7214C354.11 16.7214 354.443 16.8214 354.729 16.996C355.016 16.8214 355.348 16.7214 355.703 16.7214H361.06C361.415 16.7214 361.747 16.8214 362.034 16.996C362.32 16.8214 362.653 16.7214 363.008 16.7214H367.878C368.953 16.7214 369.826 17.6402 369.826 18.7735V23.3907C369.826 24.0366 369.537 24.6448 369.046 25.0324L366.041 27.4072L366.892 35.4766C367.117 37.613 368.061 38.6968 369.436 40.6282C369.689 40.9834 369.826 41.4154 369.826 41.8595V45.9636C369.826 47.097 368.953 48.0157 367.878 48.0157H348.885C347.81 48.0157 346.938 47.097 346.938 45.9636V41.8595C346.938 41.4154 347.074 40.9834 347.327 40.6282C348.702 38.6968 349.646 37.613 349.871 35.4766L350.722 27.4072L347.717 25.0324C347.226 24.6448 346.938 24.0366 346.938 23.3907V18.7735C346.938 17.6402 347.81 16.7214 348.885 16.7214H353.755Z" fill="#F4F7FA"/>
<path d="M348.885 18.7734H353.755V21.8516H355.703V18.7734H361.06V21.8516H363.008V18.7734H367.878V23.3906L363.982 26.4687L364.956 35.7031H351.807L352.781 26.4687L348.885 23.3906V18.7734Z" fill="#34364C"/>
<path d="M351.807 37.7552H364.956L367.878 41.8594V45.9635H348.885V41.8594L351.807 37.7552Z" fill="#34364C"/>
<rect width="46.75" height="49.25" transform="translate(335.25 106.5)" fill="#141F1A"/>
<rect width="46.75" height="49.25" transform="translate(335.25 205)" fill="#141F1A"/>
<rect width="46.75" height="49.25" transform="translate(335.25 303.5)" fill="#141F1A"/>
<path d="M352.347 330.755C352.114 331.089 351.837 331.438 351.514 331.796C350.373 333.059 348.974 334.099 348.071 334.642L347.919 334.734C347.312 335.099 346.938 335.779 346.938 336.515V341.464C346.938 342.597 347.81 343.516 348.885 343.516H367.878C368.953 343.516 369.826 342.597 369.826 341.464V336.515C369.826 335.779 369.451 335.099 368.844 334.734L368.692 334.642C367.789 334.099 366.39 333.059 365.249 331.796C364.926 331.438 364.649 331.089 364.416 330.755C365.271 330.538 365.906 329.727 365.906 328.76V325.42C365.906 324.753 365.599 324.128 365.082 323.743L364.255 323.128C364.732 322.151 365.002 321.042 365.002 319.868C365.002 315.928 361.97 312.734 358.231 312.734C354.491 312.734 351.459 315.928 351.459 319.868C351.459 321.108 351.761 322.275 352.289 323.291L351.681 323.743C351.164 324.128 350.857 324.753 350.857 325.42V328.76C350.857 329.727 351.492 330.538 352.347 330.755Z" fill="#34364C"/>
<path d="M363.054 319.868C363.054 321.341 362.459 322.669 361.507 323.597L363.959 325.42V328.76H361.559C361.675 330.308 362.618 331.858 363.838 333.21C365.133 334.644 366.691 335.801 367.726 336.424L367.878 336.515V341.463H348.885V336.515L349.037 336.424C350.072 335.801 351.63 334.644 352.925 333.21C354.145 331.858 355.088 330.308 355.204 328.76H352.804V325.42L355.087 323.722C354.059 322.79 353.407 321.409 353.407 319.868C353.407 317.061 355.567 314.786 358.231 314.786C360.895 314.786 363.054 317.061 363.054 319.868Z" fill="#F4F7FA"/>
<defs>
<clipPath id="clip0_238_6906">
<rect width="35.0625" height="36.9375" fill="white" transform="translate(200.844 358.906)"/>
</clipPath>
<clipPath id="clip1_238_6906">
<rect width="35.0625" height="36.9375" fill="white" transform="translate(200.844 14.1562)"/>
</clipPath>
</defs>
</svg>
