<svg width="32" height="32" viewBox="0 0 32 32" fill="none" xmlns="http://www.w3.org/2000/svg">
    <path
        d="M16.82 0.25C17.12 0.605 17.457 1.292 17.645 2.094C17.665 2.174 17.673 2.254 17.688 2.334H17.671C16.786 3.563 15.327 4.286 13.776 4.266C13.195 5.779 11.679 6.919 9.78804 7.264C8.36804 7.371 7.19104 8.298 6.86404 9.564C6.78408 9.87391 6.75836 10.1953 6.78804 10.514C6.79804 10.353 6.81804 10.198 6.85404 10.072C7.23204 8.785 8.46704 7.873 9.92604 7.811C11.876 7.52 13.468 6.4 14.114 4.867C15.704 4.939 16.758 4.344 17.706 3.113C17.303 5.192 14.69 5.602 14.69 5.602C14.69 5.602 13.672 7.406 12.163 7.979C10.969 8.432 9.57104 8.709 8.81504 9.123C7.66504 9.755 7.29504 10.607 7.24504 11.809C7.42504 12.085 7.67104 12.322 7.94404 12.535C7.99621 12.4267 8.08568 12.3407 8.19604 12.293C9.07704 11.873 9.89004 11.389 10.622 10.853C10.7119 10.7856 10.8218 10.7503 10.934 10.753C11.0389 10.7556 11.1404 10.7911 11.224 10.8545C11.3076 10.9179 11.3691 11.006 11.3999 11.1063C11.4306 11.2067 11.429 11.3141 11.3953 11.4135C11.3616 11.5128 11.2975 11.5991 11.212 11.66C10.499 12.182 9.71204 12.645 8.87804 13.06C9.98004 13.446 11.241 13.26 12.157 12.53C12.197 12.493 12.214 12.475 12.282 12.408C14.062 13.173 16.255 13.033 17.842 12.092L17.897 12.061C18.171 11.894 17.993 11.995 17.993 11.995L17.936 12.077C16.952 13.352 16.886 14.387 13.278 15.296C9.66904 16.205 8.30604 20.114 9.03404 23.282H10.083C9.35604 20.115 10.719 16.716 14.327 15.808C17.936 14.898 17.998 13.354 18.983 12.079L19.034 12.005L19.942 11.575C18.993 18.755 10.932 13.755 10.932 23.28L10.938 23.76H19.794V23.257H21.954C22.104 22.93 22.239 22.598 22.37 22.265L25.827 22.255C27.204 15.203 24.719 6.721 20.262 2.788L20.142 2.7C19.468 1.532 18.312 0.615 16.819 0.255L16.82 0.25ZM17.401 0.64C19.114 1.978 19.535 3.805 17.926 4.676L17.657 4.746C18.868 2.367 17.594 1.063 17.401 0.64ZM16.137 6.758C16.149 6.75757 16.161 6.75757 16.173 6.758H17.173C17.3057 6.758 17.4328 6.81068 17.5266 6.90445C17.6204 6.99821 17.673 7.12539 17.673 7.258C17.673 7.39061 17.6204 7.51779 17.5266 7.61155C17.4328 7.70532 17.3057 7.758 17.173 7.758H16.173C16.0404 7.76277 15.9114 7.71467 15.8142 7.62428C15.7171 7.53389 15.6598 7.40861 15.655 7.276C15.6503 7.14339 15.6984 7.01432 15.7888 6.91717C15.8792 6.82003 16.0044 6.76277 16.137 6.758ZM9.91104 24.756C8.81104 24.756 7.91104 25.656 7.91104 26.756C7.91104 27.122 8.01904 27.46 8.19204 27.756H7.92004C6.79004 27.756 5.79504 28.555 5.79504 29.635V30.147L5.79704 30.42L5.79504 30.746V31.75H6.79504V30.746L6.79704 30.42L6.79504 30.147V29.635C6.79504 28.555 7.79104 27.756 8.92004 27.756H9.19304C9.01156 27.4538 8.91451 27.1085 8.91204 26.756C8.91204 25.656 9.81204 24.756 10.912 24.756H9.91104ZM11.911 24.756C10.811 24.756 9.91104 25.656 9.91104 26.756C9.91104 27.122 10.019 27.46 10.192 27.756H9.92004C8.79004 27.756 7.79504 28.555 7.79504 29.635V30.147L7.79704 30.42L7.79504 30.746V31.75H24.795V29.637C24.795 28.557 23.797 27.758 22.668 27.758H22.463C22.6441 27.4557 22.7408 27.1104 22.743 26.758C22.743 25.659 21.843 24.758 20.743 24.758H11.912L11.911 24.756Z"
        fill="#39D89C" />
</svg>