<svg width="73" height="168" viewBox="0 0 73 168" fill="none" xmlns="http://www.w3.org/2000/svg">
<path d="M65.5 148.254H72V167H1V148.254H7.00556H8.2904L7.97496 147.009L2.00397 123.433C1.40858 121.082 1.78711 118.59 3.05381 116.522L49.6886 40.3867L50.6211 38.8644H48.8359H44.8762H44.3191L44.0259 39.3382L15.3042 85.7484L7.36988 83.0788C5.8834 82.5786 4.82636 81.2559 4.66635 79.6957L1.05387 44.4741L3.08358 43.0154L3.99525 42.3603L3.23942 41.5301L1.84303 39.9965C1.30062 39.4007 1 38.6241 1 37.8184V31.5959C1 21.5503 9.14356 13.4068 19.1892 13.4068H20.1892V12.4068V1H30.7966C53.5526 1 72 19.4474 72 42.2034V136.954L64.701 146.653L63.4959 148.254H65.5Z" fill="white" stroke="#141F1A" stroke-width="2"/>
</svg>
