<svg width="44" height="100" viewBox="0 0 44 100" fill="none" xmlns="http://www.w3.org/2000/svg">
<path d="M38.8076 87.8422H42.2307V98.0769H1.17944V87.8422H4.31093H5.59577L5.28032 86.5967L2.18342 74.3688C1.58802 72.0179 1.96655 69.5262 3.23325 67.4582L29.8328 24.0321L30.7653 22.5098H28.9801H26.6449H26.0878L25.7946 22.9835L9.02741 50.077L5.90829 49.0275C4.42182 48.5273 3.36478 47.2046 3.20476 45.6444L1.23331 26.4228L2.23738 25.7012L3.14905 25.0461L2.39323 24.2159L1.56971 23.3115L0.835111 23.9803L1.56971 23.3115C1.31861 23.0357 1.17944 22.6761 1.17944 22.3031V18.6335C1.17944 12.9358 5.79838 8.31682 11.4961 8.31682H12.4961V7.31682V1H18.3416C31.5352 1 42.2307 11.6955 42.2307 24.8892V80.6306L38.0086 86.2409L36.8036 87.8422H38.8076Z" fill="#25EDDD" stroke="#141F1A" stroke-width="2"/>
</svg>
