<svg width="16" height="17" viewBox="0 0 16 17" fill="none" xmlns="http://www.w3.org/2000/svg">
<path d="M13.84 2.96828L13.7 2.89828L12.34 2.11828L9.52 0.488281C8.66 -0.0117188 7.34 -0.0117188 6.48 0.488281L3.66 2.10828L2.3 2.90828L2.12 2.99828C0.37 4.17828 0.25 4.39828 0.25 6.2883V10.8083C0.25 12.6983 0.37 12.9183 2.16 14.1283L6.48 16.6183C6.91 16.8783 7.45 16.9883 8 16.9883C8.54 16.9883 9.09 16.8683 9.52 16.6183L13.88 14.0983C15.64 12.9183 15.75 12.7083 15.75 10.8083V6.2883C15.75 4.39828 15.63 4.17828 13.84 2.96828ZM10.79 8.4983L10.18 9.2483C10.08 9.3583 10.01 9.5683 10.02 9.7183L10.08 10.6783C10.12 11.2683 9.7 11.5683 9.15 11.3583L8.26 10.9983C8.12 10.9483 7.89 10.9483 7.75 10.9983L6.86 11.3483C6.31 11.5683 5.89 11.2583 5.93 10.6683L5.99 9.7083C6 9.5583 5.93 9.3483 5.83 9.2383L5.21 8.4983C4.83 8.0483 5 7.5483 5.57 7.3983L6.5 7.1583C6.65 7.1183 6.82 6.9783 6.9 6.8583L7.42 6.0583C7.74 5.5583 8.25 5.5583 8.58 6.0583L9.1 6.8583C9.18 6.9883 9.36 7.1183 9.5 7.1583L10.43 7.3983C11 7.5483 11.17 8.0483 10.79 8.4983Z" fill="#141F1A"/>
</svg>
