<svg width="44" height="44" viewBox="0 0 44 44" fill="none" xmlns="http://www.w3.org/2000/svg">
<g filter="url(#filter0_b_96_15709)">
<rect width="44" height="44" rx="22" fill="#8994A3" fill-opacity="0.3"/>
<path fill-rule="evenodd" clip-rule="evenodd" d="M16.0171 10.9993H16.0981C16.841 10.9993 17.4578 10.9992 17.9591 11.0441C18.4814 11.0908 18.9656 11.1917 19.414 11.4471C19.9296 11.7409 20.3592 12.1643 20.6585 12.6759C20.9197 13.1222 21.0228 13.6047 21.0704 14.1232C21.116 14.6196 21.116 15.2296 21.116 15.9615V16.0442C21.116 16.7761 21.116 17.3861 21.0704 17.8825C21.0228 18.401 20.9197 18.8835 20.6585 19.3299C20.3592 19.8415 19.9296 20.2648 19.414 20.5586C18.9656 20.814 18.4814 20.9149 17.9591 20.9616C17.4578 21.0065 16.841 21.0065 16.0981 21.0064H16.0171C15.2743 21.0065 14.6575 21.0065 14.1561 20.9616C13.6338 20.9149 13.1496 20.814 12.7012 20.5586C12.1856 20.2648 11.756 19.8415 11.4567 19.3299C11.1956 18.8835 11.0924 18.401 11.0448 17.8825C10.9992 17.3861 10.9993 16.7761 10.9993 16.0442V15.9615C10.9993 15.2296 10.9992 14.6196 11.0448 14.1232C11.0924 13.6047 11.1956 13.1222 11.4567 12.6759C11.756 12.1643 12.1856 11.7409 12.7012 11.4471C13.1496 11.1917 13.6338 11.0908 14.1561 11.0441C14.6575 10.9992 15.2743 10.9993 16.0171 10.9993ZM14.3165 12.8368C13.9168 12.8726 13.7229 12.9366 13.5922 13.011C13.3492 13.1495 13.1489 13.3478 13.0103 13.5848C12.9372 13.7097 12.8731 13.8964 12.8372 14.2879C12.8001 14.6921 12.7992 15.219 12.7992 16.0029C12.7992 16.7867 12.8001 17.3136 12.8372 17.7179C12.8731 18.1093 12.9372 18.296 13.0103 18.421C13.1489 18.658 13.3492 18.8562 13.5922 18.9947C13.7229 19.0691 13.9168 19.1331 14.3165 19.1689C14.7281 19.2057 15.264 19.2065 16.0576 19.2065C16.8513 19.2065 17.3871 19.2057 17.7987 19.1689C18.1984 19.1331 18.3924 19.0691 18.523 18.9947C18.766 18.8562 18.9663 18.658 19.105 18.421C19.1781 18.296 19.2421 18.1093 19.278 17.7179C19.3152 17.3136 19.3161 16.7867 19.3161 16.0029C19.3161 15.219 19.3152 14.6921 19.278 14.2879C19.2421 13.8964 19.1781 13.7097 19.105 13.5848C18.9663 13.3478 18.766 13.1495 18.523 13.011C18.3924 12.9366 18.1984 12.8726 17.7987 12.8368C17.3871 12.8 16.8513 12.7992 16.0576 12.7992C15.264 12.7992 14.7281 12.8 14.3165 12.8368ZM27.6606 10.9993H27.7416C28.4845 10.9993 29.1013 10.9992 29.6026 11.0441C30.1249 11.0908 30.6092 11.1917 31.0575 11.4471C31.5731 11.7409 32.0027 12.1643 32.302 12.6759C32.5632 13.1222 32.6663 13.6047 32.7139 14.1232C32.7595 14.6196 32.7595 15.2296 32.7595 15.9615V16.0442C32.7595 16.7761 32.7595 17.3861 32.7139 17.8825C32.6663 18.401 32.5632 18.8835 32.302 19.3299C32.0027 19.8415 31.5731 20.2648 31.0575 20.5586C30.6092 20.814 30.1249 20.9149 29.6026 20.9616C29.1013 21.0065 28.4845 21.0065 27.7416 21.0064H27.6606C26.9178 21.0065 26.301 21.0065 25.7997 20.9616C25.2773 20.9149 24.7931 20.814 24.3447 20.5586C23.8292 20.2648 23.3995 19.8415 23.1002 19.3299C22.8391 18.8835 22.736 18.401 22.6883 17.8825C22.6427 17.3861 22.6428 16.7761 22.6428 16.0442V15.9615C22.6428 15.2296 22.6427 14.6196 22.6883 14.1232C22.736 13.6047 22.8391 13.1222 23.1002 12.6759C23.3995 12.1643 23.8292 11.7409 24.3447 11.4471C24.7931 11.1917 25.2773 11.0908 25.7997 11.0441C26.301 10.9992 26.9178 10.9993 27.6606 10.9993ZM25.96 12.8368C25.5603 12.8726 25.3664 12.9366 25.2358 13.011C24.9928 13.1495 24.7924 13.3478 24.6538 13.5848C24.5807 13.7097 24.5166 13.8964 24.4807 14.2879C24.4436 14.6921 24.4427 15.219 24.4427 16.0029C24.4427 16.7867 24.4436 17.3136 24.4807 17.7179C24.5166 18.1093 24.5807 18.296 24.6538 18.421C24.7924 18.658 24.9928 18.8562 25.2358 18.9947C25.3664 19.0691 25.5603 19.1331 25.96 19.1689C26.3716 19.2057 26.9075 19.2065 27.7011 19.2065C28.4948 19.2065 29.0306 19.2057 29.4422 19.1689C29.8419 19.1331 30.0359 19.0691 30.1665 18.9947C30.4095 18.8562 30.6098 18.658 30.7485 18.421C30.8216 18.296 30.8856 18.1093 30.9216 17.7179C30.9587 17.3136 30.9596 16.7867 30.9596 16.0029C30.9596 15.219 30.9587 14.6921 30.9216 14.2879C30.8856 13.8964 30.8216 13.7097 30.7485 13.5848C30.6098 13.3478 30.4095 13.1495 30.1665 13.011C30.0359 12.9366 29.8419 12.8726 29.4422 12.8368C29.0306 12.8 28.4948 12.7992 27.7011 12.7992C26.9075 12.7992 26.3716 12.8 25.96 12.8368ZM16.0171 22.4895H16.0981C16.8409 22.4894 17.4577 22.4894 17.9591 22.5343C18.4814 22.581 18.9656 22.6819 19.414 22.9373C19.9296 23.2311 20.3592 23.6545 20.6585 24.166C20.9197 24.6124 21.0228 25.0949 21.0704 25.6134C21.116 26.1098 21.116 26.7198 21.116 27.4517V27.5344C21.116 28.2663 21.116 28.8763 21.0704 29.3727C21.0228 29.8912 20.9197 30.3737 20.6585 30.8201C20.3592 31.3316 19.9296 31.755 19.414 32.0488C18.9656 32.3042 18.4814 32.4051 17.9591 32.4518C17.4578 32.4967 16.841 32.4967 16.0982 32.4966H16.0171C15.2742 32.4967 14.6575 32.4967 14.1561 32.4518C13.6338 32.4051 13.1496 32.3042 12.7012 32.0488C12.1856 31.755 11.756 31.3316 11.4567 30.8201C11.1956 30.3737 11.0924 29.8912 11.0448 29.3727C10.9992 28.8763 10.9993 28.2663 10.9993 27.5344V27.4517C10.9993 26.7198 10.9992 26.1098 11.0448 25.6134C11.0924 25.0949 11.1956 24.6124 11.4567 24.166C11.756 23.6545 12.1856 23.2311 12.7012 22.9373C13.1496 22.6819 13.6338 22.581 14.1561 22.5343C14.6575 22.4894 15.2743 22.4894 16.0171 22.4895ZM14.3165 24.327C13.9168 24.3628 13.7229 24.4268 13.5922 24.5012C13.3492 24.6397 13.1489 24.838 13.0103 25.075C12.9372 25.1999 12.8731 25.3866 12.8372 25.778C12.8001 26.1823 12.7992 26.7092 12.7992 27.493C12.7992 28.2769 12.8001 28.8038 12.8372 29.2081C12.8731 29.5995 12.9372 29.7862 13.0103 29.9111C13.1489 30.1481 13.3492 30.3464 13.5922 30.4849C13.7229 30.5593 13.9168 30.6233 14.3165 30.6591C14.7281 30.6959 15.264 30.6967 16.0576 30.6967C16.8513 30.6967 17.3871 30.6959 17.7987 30.6591C18.1984 30.6233 18.3924 30.5593 18.523 30.4849C18.766 30.3464 18.9663 30.1481 19.105 29.9111C19.1781 29.7862 19.2421 29.5995 19.278 29.2081C19.3152 28.8038 19.3161 28.2769 19.3161 27.493C19.3161 26.7092 19.3152 26.1823 19.278 25.778C19.2421 25.3866 19.1781 25.1999 19.105 25.075C18.9663 24.838 18.766 24.6397 18.523 24.5012C18.3924 24.4268 18.1984 24.3628 17.7987 24.327C17.3871 24.2902 16.8513 24.2894 16.0576 24.2894C15.264 24.2894 14.7281 24.2902 14.3165 24.327Z" fill="#141F1A"/>
<path fill-rule="evenodd" clip-rule="evenodd" d="M27.7062 22.4895H27.7872C28.53 22.4894 29.1468 22.4894 29.6481 22.5343C30.1705 22.581 30.6547 22.6819 31.1031 22.9373C31.6186 23.2311 32.0483 23.6545 32.3476 24.166C32.6087 24.6124 32.7118 25.0949 32.7595 25.6134C32.8051 26.1098 32.805 26.7198 32.805 27.4517V27.5344C32.805 28.2663 32.8051 28.8763 32.7595 29.3727C32.7118 29.8912 32.6087 30.3737 32.3476 30.8201C32.0483 31.3316 31.6186 31.755 31.1031 32.0488C30.6547 32.3042 30.1705 32.4051 29.6481 32.4518C29.1468 32.4967 28.53 32.4967 27.7872 32.4966H27.7062C26.9633 32.4967 26.3465 32.4967 25.8452 32.4518C25.3229 32.4051 24.8387 32.3042 24.3903 32.0488C23.8747 31.755 23.4451 31.3316 23.1458 30.8201C22.8846 30.3737 22.7815 29.8912 22.7339 29.3727C22.6883 28.8763 22.6883 28.2663 22.6883 27.5344V27.4517C22.6883 26.7198 22.6883 26.1098 22.7339 25.6134C22.7815 25.0949 22.8846 24.6124 23.1458 24.166C23.4451 23.6545 23.8747 23.2311 24.3903 22.9373C24.8386 22.6819 25.3229 22.581 25.8452 22.5343C26.3465 22.4894 26.9633 22.4894 27.7062 22.4895ZM25.2813 24.5012C25.4119 24.4268 25.6059 24.3628 26.0056 24.327C26.4172 24.2902 26.953 24.2894 27.7467 24.2894C28.5403 24.2894 29.0762 24.2902 29.4878 24.327C29.8875 24.3628 30.0814 24.4268 30.212 24.5012C30.455 24.6397 30.6554 24.838 30.794 25.075C30.8671 25.1999 30.9312 25.3866 30.9671 25.778C31.0042 26.1823 31.0051 26.7092 31.0051 27.4931C31.0051 28.2769 31.0042 28.8038 30.9671 29.2081C30.9312 29.5995 30.8671 29.7862 30.794 29.9111C30.6554 30.1481 30.455 30.3464 30.212 30.4849C30.0814 30.5593 29.8875 30.6233 29.4878 30.6591C29.0762 30.6959 28.5403 30.6967 27.7467 30.6967C26.953 30.6967 26.4172 30.6959 26.0056 30.6591C25.6059 30.6233 25.4119 30.5593 25.2813 30.4849C25.0383 30.3464 24.838 30.1481 24.6993 29.9111C24.6262 29.7862 24.5622 29.5995 24.5262 29.2081C24.4891 28.8038 24.4882 28.2769 24.4882 27.4931C24.4882 26.7092 24.4891 26.1823 24.5262 25.778C24.5622 25.3866 24.6262 25.1999 24.6993 25.075C24.838 24.838 25.0383 24.6397 25.2813 24.5012Z" fill="#141F1A"/>
<path d="M14.3165 12.8368C13.9168 12.8726 13.7229 12.9366 13.5922 13.011C13.3492 13.1495 13.1489 13.3478 13.0103 13.5848C12.9372 13.7097 12.8731 13.8964 12.8372 14.2879C12.8001 14.6921 12.7992 15.219 12.7992 16.0029C12.7992 16.7867 12.8001 17.3136 12.8372 17.7179C12.8731 18.1093 12.9372 18.296 13.0103 18.421C13.1489 18.658 13.3492 18.8562 13.5922 18.9947C13.7229 19.0691 13.9168 19.1331 14.3165 19.1689C14.7281 19.2057 15.264 19.2065 16.0576 19.2065C16.8513 19.2065 17.3871 19.2057 17.7987 19.1689C18.1984 19.1331 18.3924 19.0691 18.523 18.9947C18.766 18.8562 18.9663 18.658 19.105 18.421C19.1781 18.296 19.2421 18.1093 19.278 17.7179C19.3152 17.3136 19.3161 16.7867 19.3161 16.0029C19.3161 15.219 19.3152 14.6921 19.278 14.2879C19.2421 13.8964 19.1781 13.7097 19.105 13.5848C18.9663 13.3478 18.766 13.1495 18.523 13.011C18.3924 12.9366 18.1984 12.8726 17.7987 12.8368C17.3871 12.8 16.8513 12.7992 16.0576 12.7992C15.264 12.7992 14.7281 12.8 14.3165 12.8368Z" fill="#141F1A"/>
<path d="M25.96 12.8368C25.5603 12.8726 25.3664 12.9366 25.2358 13.011C24.9928 13.1495 24.7924 13.3478 24.6538 13.5848C24.5807 13.7097 24.5166 13.8964 24.4807 14.2879C24.4436 14.6921 24.4427 15.219 24.4427 16.0029C24.4427 16.7867 24.4436 17.3136 24.4807 17.7179C24.5166 18.1093 24.5807 18.296 24.6538 18.421C24.7924 18.658 24.9928 18.8562 25.2358 18.9947C25.3664 19.0691 25.5603 19.1331 25.96 19.1689C26.3716 19.2057 26.9075 19.2065 27.7011 19.2065C28.4948 19.2065 29.0306 19.2057 29.4422 19.1689C29.8419 19.1331 30.0359 19.0691 30.1665 18.9947C30.4095 18.8562 30.6098 18.658 30.7485 18.421C30.8216 18.296 30.8856 18.1093 30.9216 17.7179C30.9587 17.3136 30.9596 16.7867 30.9596 16.0029C30.9596 15.219 30.9587 14.6921 30.9216 14.2879C30.8856 13.8964 30.8216 13.7097 30.7485 13.5848C30.6098 13.3478 30.4095 13.1495 30.1665 13.011C30.0359 12.9366 29.8419 12.8726 29.4422 12.8368C29.0306 12.8 28.4948 12.7992 27.7011 12.7992C26.9075 12.7992 26.3716 12.8 25.96 12.8368Z" fill="#141F1A"/>
<path d="M14.3165 24.327C13.9168 24.3628 13.7229 24.4268 13.5922 24.5012C13.3492 24.6397 13.1489 24.838 13.0103 25.075C12.9372 25.1999 12.8731 25.3866 12.8372 25.778C12.8001 26.1823 12.7992 26.7092 12.7992 27.493C12.7992 28.2769 12.8001 28.8038 12.8372 29.2081C12.8731 29.5995 12.9372 29.7862 13.0103 29.9111C13.1489 30.1481 13.3492 30.3464 13.5922 30.4849C13.7229 30.5593 13.9168 30.6233 14.3165 30.6591C14.7281 30.6959 15.264 30.6967 16.0576 30.6967C16.8513 30.6967 17.3871 30.6959 17.7987 30.6591C18.1984 30.6233 18.3924 30.5593 18.523 30.4849C18.766 30.3464 18.9663 30.1481 19.105 29.9111C19.1781 29.7862 19.2421 29.5995 19.278 29.2081C19.3152 28.8038 19.3161 28.2769 19.3161 27.493C19.3161 26.7092 19.3152 26.1823 19.278 25.778C19.2421 25.3866 19.1781 25.1999 19.105 25.075C18.9663 24.838 18.766 24.6397 18.523 24.5012C18.3924 24.4268 18.1984 24.3628 17.7987 24.327C17.3871 24.2902 16.8513 24.2894 16.0576 24.2894C15.264 24.2894 14.7281 24.2902 14.3165 24.327Z" fill="#141F1A"/>
<path d="M26.0056 24.327C25.6059 24.3628 25.4119 24.4268 25.2813 24.5012C25.0383 24.6397 24.838 24.838 24.6993 25.075C24.6262 25.1999 24.5622 25.3866 24.5262 25.778C24.4891 26.1823 24.4882 26.7092 24.4882 27.4931C24.4882 28.2769 24.4891 28.8038 24.5262 29.2081C24.5622 29.5995 24.6262 29.7862 24.6993 29.9111C24.838 30.1481 25.0383 30.3464 25.2813 30.4849C25.4119 30.5593 25.6059 30.6233 26.0056 30.6591C26.4172 30.6959 26.953 30.6967 27.7467 30.6967C28.5403 30.6967 29.0762 30.6959 29.4878 30.6591C29.8875 30.6233 30.0814 30.5593 30.212 30.4849C30.455 30.3464 30.6554 30.1481 30.794 29.9111C30.8671 29.7862 30.9312 29.5995 30.9671 29.2081C31.0042 28.8038 31.0051 28.2769 31.0051 27.4931C31.0051 26.7092 31.0042 26.1823 30.9671 25.778C30.9312 25.3866 30.8671 25.1999 30.794 25.075C30.6554 24.838 30.455 24.6397 30.212 24.5012C30.0814 24.4268 29.8875 24.3628 29.4878 24.327C29.0762 24.2902 28.5403 24.2894 27.7467 24.2894C26.953 24.2894 26.4172 24.2902 26.0056 24.327Z" fill="#141F1A"/>
</g>
<defs>
<filter id="filter0_b_96_15709" x="-10" y="-10" width="64" height="64" filterUnits="userSpaceOnUse" color-interpolation-filters="sRGB">
<feFlood flood-opacity="0" result="BackgroundImageFix"/>
<feGaussianBlur in="BackgroundImageFix" stdDeviation="5"/>
<feComposite in2="SourceAlpha" operator="in" result="effect1_backgroundBlur_96_15709"/>
<feBlend mode="normal" in="SourceGraphic" in2="effect1_backgroundBlur_96_15709" result="shape"/>
</filter>
</defs>
</svg>
