<svg width="28" height="67" viewBox="0 0 28 67" fill="none" xmlns="http://www.w3.org/2000/svg">
<path d="M13.5822 4.97328C13.7407 4.51709 13.8475 3.77922 14.0321 3.22659C14.5466 1.68354 15.1127 0.242128 16.066 0.0173311C17.0197 -0.207119 16.5458 1.78587 16.8851 3.82951C17.088 5.05514 17.0197 6.31581 16.9326 7.13174C18.6602 8.59778 20.3146 11.4306 20.6213 16.8601C21.0116 26.1378 20.044 41.8601 20.044 41.8601C21.1503 42.8745 22.2171 43.4337 22.2292 43.8278C22.2521 44.541 20.954 44.873 20.954 44.873C20.954 44.873 22.19 45.9918 22.8724 47.1498C23.5551 48.3102 23.264 51.8244 22.7111 54.1587C22.1578 56.4893 22.1262 56.9552 22.6459 57.786C23.1652 58.6186 22.8405 59.4734 22.8405 59.4734L12.5994 62.8918V46.3578V44.5317V4.74223C12.5994 4.74223 13.2009 4.76652 13.5822 4.97328Z" fill="url(#paint0_linear_172_9781)"/>
<path d="M2.32634 47.2515C3.00906 46.0709 4.24475 44.9057 4.24475 44.9057C4.24475 44.9057 2.94662 44.6171 2.96951 43.9007C2.98165 43.5049 4.0484 42.9037 5.15469 41.8383C5.15469 41.8383 -0.37053 25.1582 0.0197428 15.8198C0.70246 3.63841 12.5997 4.76657 12.5997 4.76657V44.2129V46.0793V62.9723L2.35861 59.5976C2.35861 59.5976 2.03424 58.7432 2.55357 57.9057C3.07289 57.0676 3.04132 56.6007 2.488 54.2708C1.93468 51.9424 1.64397 48.4317 2.32634 47.2515Z" fill="url(#paint1_linear_172_9781)"/>
<path d="M19.0692 9.29804C21.7025 12.6943 20.8734 14.5925 21.9953 15.7058C23.1165 16.8204 24.4331 19.4069 26.2373 20.5986C28.0416 21.7916 28.2362 26.5561 26.2373 26.6837C24.2381 26.81 21.4101 24.1277 19.8986 23.8405C18.3871 23.5525 17.0217 23.5463 15.7052 22.8681C14.3887 22.1913 13.6418 19.5617 13.1211 19.673C12.5997 19.7844 13.7549 24.0788 15.071 25.6846C16.3875 27.2925 20.8738 33.6837 21.0198 37.3935C21.1496 40.6683 20.359 45.3717 20.1713 46.4308C21.2304 48.0426 22.2177 49.1988 22.2302 49.5884C22.2531 50.3193 20.9546 49.8441 20.9546 49.8441C20.9546 49.8441 22.1906 51.7399 22.8734 53.3288C23.5561 54.918 23.265 58.2698 22.7117 60.276C22.1584 62.2808 22.1268 62.73 22.6465 63.8835C23.1662 65.038 22.8418 65.6992 22.8418 65.6992L12.6003 62.8885V46.5054V46.1148V44.2623V4.76636C12.5993 4.76636 16.4365 5.90908 19.0692 9.29804Z" fill="url(#paint2_linear_172_9781)"/>
<path d="M11.6923 5.54262C11.5337 5.21236 11.3513 4.82659 11.1667 4.42071C10.6522 3.29013 10.0861 1.44632 9.13277 2.01802C8.17911 2.58903 8.65265 4.19419 8.31406 6.52541C8.11077 7.92138 8.17911 9.12861 8.26619 9.87516C6.53893 12.7434 4.88417 16.8914 4.57716 22.5262C4.18723 32.0319 5.15441 46.9334 5.15441 46.9334C4.04812 48.729 2.98138 50.0382 2.96923 50.4372C2.94634 51.1577 4.24447 50.5718 4.24447 50.5718C4.24447 50.5718 3.00878 52.5481 2.32606 54.1685C1.64369 55.7858 1.93441 59.0485 2.48738 60.9749C3.0407 62.9047 3.07261 63.3435 2.55294 64.5126C2.03362 65.68 2.35798 66.3075 2.35798 66.3075L12.5991 62.8891V46.1154V44.2629V4.76658C12.5991 4.76658 12.2484 5.01774 11.6923 5.54262Z" fill="url(#paint3_linear_172_9781)"/>
<defs>
<linearGradient id="paint0_linear_172_9781" x1="22.2188" y1="29.5332" x2="8.99723" y2="32.754" gradientUnits="userSpaceOnUse">
<stop stop-color="white"/>
<stop offset="0.1688" stop-color="#D8D8D8"/>
<stop offset="0.4551" stop-color="#9D9D9D"/>
<stop offset="0.6991" stop-color="#717171"/>
<stop offset="0.8885" stop-color="#565656"/>
<stop offset="1" stop-color="#4C4C4C"/>
</linearGradient>
<linearGradient id="paint1_linear_172_9781" x1="-4.79768" y1="27.6868" x2="7.23736" y2="32.0939" gradientUnits="userSpaceOnUse">
<stop/>
<stop offset="0.1466" stop-color="#0D0D0D"/>
<stop offset="0.4384" stop-color="#222222"/>
<stop offset="0.7255" stop-color="#2F2F2F"/>
<stop offset="1" stop-color="#333333"/>
</linearGradient>
<linearGradient id="paint2_linear_172_9781" x1="12.5994" y1="35.2329" x2="27.6642" y2="35.2329" gradientUnits="userSpaceOnUse">
<stop/>
<stop offset="0.1466" stop-color="#0D0D0D"/>
<stop offset="0.4384" stop-color="#222222"/>
<stop offset="0.7255" stop-color="#2F2F2F"/>
<stop offset="1" stop-color="#333333"/>
</linearGradient>
<linearGradient id="paint3_linear_172_9781" x1="1.92882" y1="34.1088" x2="12.5995" y2="34.1088" gradientUnits="userSpaceOnUse">
<stop stop-color="white"/>
<stop offset="0.3576" stop-color="#FDFDFD"/>
<stop offset="0.5059" stop-color="#F6F6F6"/>
<stop offset="0.6155" stop-color="#EAEAEA"/>
<stop offset="0.706" stop-color="#D8D8D8"/>
<stop offset="0.7847" stop-color="#C1C1C1"/>
<stop offset="0.8552" stop-color="#A5A5A5"/>
<stop offset="0.9195" stop-color="#838383"/>
<stop offset="0.9774" stop-color="#5D5D5D"/>
<stop offset="1" stop-color="#4C4C4C"/>
</linearGradient>
</defs>
</svg>
