<svg width="32" height="32" viewBox="0 0 32 32" fill="none" xmlns="http://www.w3.org/2000/svg">
<path fill-rule="evenodd" clip-rule="evenodd" d="M11.3109 0.999025C11.1869 0.999289 11.068 1.04868 10.9803 1.13639C10.8926 1.2241 10.8432 1.34298 10.8429 1.46702V6.15302C10.8429 6.41202 11.0529 6.62202 11.3109 6.62202H12.7289C12.7329 7.09202 12.7329 7.55702 12.7309 8.02202H12.3719C11.7849 8.02202 11.3119 8.44202 11.3119 8.96202C11.3119 9.48102 11.7849 9.89902 12.3719 9.89902H13.3099C12.7229 9.89902 12.2489 9.48102 12.2489 8.96102C12.2489 8.44102 12.7229 8.02202 13.3089 8.02202H13.6689C13.6709 7.55702 13.6709 7.09202 13.6669 6.62202C13.6053 6.62202 13.5442 6.60986 13.4872 6.58623C13.4303 6.5626 13.3785 6.52796 13.335 6.4843C13.2914 6.44065 13.2569 6.38883 13.2334 6.33181C13.2098 6.27479 13.1978 6.2137 13.1979 6.15202V1.46802C13.1979 1.45202 13.1999 1.43802 13.2019 1.42102C13.2029 1.40524 13.2049 1.38954 13.2079 1.37402L13.2199 1.32902C13.2248 1.31454 13.2302 1.3002 13.2359 1.28602C13.2419 1.27202 13.2469 1.25802 13.2549 1.24602C13.2619 1.23202 13.2719 1.21802 13.2799 1.20602C13.2954 1.17998 13.3146 1.15639 13.3369 1.13602C13.364 1.11139 13.3927 1.08867 13.4229 1.06802C13.3542 1.0251 13.275 1.0016 13.1939 1.00002H11.3119L11.3109 0.999025ZM15.0559 0.999025C14.9315 0.998759 14.812 1.04788 14.7237 1.13562C14.6354 1.22336 14.5855 1.34255 14.5849 1.46702V2.86602H14.1349V6.15302C14.1349 6.41102 14.3459 6.62102 14.6049 6.62202C14.6079 7.09202 14.6079 7.55702 14.6059 8.02202H14.2469C13.6599 8.02202 13.1869 8.44202 13.1869 8.96202C13.1869 9.48102 13.6599 9.89902 14.2469 9.89902H19.6299C20.2169 9.89902 20.6879 9.48102 20.6879 8.96102C20.6879 8.44102 20.2169 8.02202 19.6299 8.02202H19.2859C19.2829 7.55702 19.2819 7.09202 19.2859 6.62202H20.7039C20.9639 6.62202 21.1729 6.41202 21.1729 6.15202V1.46802C21.1727 1.34381 21.1231 1.22478 21.0352 1.13704C20.9473 1.0493 20.8282 1.00002 20.7039 1.00002H18.8429C18.5829 1.00002 18.3729 1.21002 18.3739 1.47002L18.3819 2.86702H17.4319V1.46702C17.4312 1.34341 17.3817 1.22508 17.2943 1.13767C17.2069 1.05027 17.0886 1.00081 16.9649 1.00002H15.0569L15.0559 0.999025ZM13.4329 1.07302C13.4803 1.09861 13.5213 1.13449 13.5529 1.17802C13.5195 1.13616 13.4789 1.1006 13.4329 1.07302ZM13.6609 1.45802L13.6569 2.86402H13.6629V1.46702L13.6609 1.45802ZM12.6609 10.836C12.5079 15.51 12.0389 19.842 11.1789 23.496H12.1159C12.9759 19.842 13.4459 15.51 13.5989 10.836H12.6609ZM14.5359 10.836C14.3829 15.51 13.9139 19.842 13.0539 23.496H20.8659C20.0029 19.841 19.5169 15.509 19.3559 10.836H14.5359ZM10.9539 24.434L10.9519 24.444C10.4552 24.4459 9.97939 24.644 9.62815 24.9952C9.27692 25.3465 9.07879 25.8223 9.07694 26.319C9.07694 26.662 9.17794 26.979 9.34094 27.256H9.08494C8.02594 27.256 7.09094 28.001 7.09094 29.014V29.237C7.09094 29.317 7.09294 29.325 7.09294 29.26L7.09094 29.988V30.998H8.02794V29.988L8.02994 29.26C8.02994 29.325 8.02794 29.317 8.02794 29.237V29.014C8.02794 28.002 8.96394 27.253 10.0219 27.253H10.2799C10.1098 26.9696 10.019 26.6456 10.0169 26.315C10.0183 25.8185 10.216 25.3426 10.5669 24.9914C10.9178 24.6401 11.3934 24.4419 11.8899 24.44L11.8919 24.43H10.9539V24.434ZM12.8289 24.434L12.8269 24.444C12.3304 24.4459 11.8548 24.6441 11.5039 24.9954C11.153 25.3466 10.9553 25.8225 10.9539 26.319C10.9539 26.662 11.0539 26.979 11.2179 27.256H10.9599C9.90094 27.256 8.96594 28.006 8.96594 29.018V29.241C8.96594 29.321 8.96794 29.329 8.96794 29.264L8.96594 29.992V31.002H24.9089V29.02C24.9089 28.007 23.9739 27.258 22.9149 27.258H22.7239C22.8859 26.981 22.9869 26.664 22.9869 26.321C22.9856 25.8241 22.7877 25.348 22.4363 24.9967C22.085 24.6453 21.6088 24.4473 21.1119 24.446H21.0919L21.0909 24.436H12.8289V24.434Z" fill="#39D89C"/>
</svg>
