<svg width="32" height="32" viewBox="0 0 32 32" fill="none" xmlns="http://www.w3.org/2000/svg">
<path fill-rule="evenodd" clip-rule="evenodd" d="M16 2.74701C15.337 2.74701 14.7011 3.0104 14.2322 3.47924C13.7634 3.94808 13.5 4.58397 13.5 5.24701C13.5006 5.63276 13.5905 6.01313 13.7626 6.35837C13.9347 6.7036 14.1843 7.00433 14.492 7.23701H13.5C12.946 7.23701 12.5 7.68301 12.5 8.23701C12.5 8.74401 12.879 9.14201 13.365 9.21001V9.22001H14.365V9.21001C14.1271 9.18082 13.9081 9.0659 13.7488 8.88679C13.5896 8.70768 13.5011 8.47666 13.5 8.23701C13.5 7.68301 13.946 7.23701 14.5 7.23701H15.022C14.004 5.84901 14.002 4.00901 16.141 2.76101C16.093 2.76101 16.047 2.74701 16 2.74701ZM16.147 2.76301C14.826 3.91901 14.46 5.62801 15.881 7.26301H15.373C15.1334 7.29064 14.9123 7.40512 14.7514 7.58479C14.5905 7.76446 14.5011 7.99685 14.5 8.23801C14.5 8.74401 14.879 9.14201 15.365 9.21001V9.22001H18.61C19.109 9.16301 19.5 8.75701 19.5 8.24201C19.5 7.68801 19.054 7.24201 18.5 7.24201H17.51C17.9161 6.9339 18.2181 6.50868 18.3751 6.02366C18.5321 5.53865 18.5366 5.01716 18.3881 4.52949C18.2396 4.04181 17.9451 3.6114 17.5444 3.29626C17.1436 2.98112 16.6559 2.7964 16.147 2.76701V2.76301ZM13.363 10.216C13.386 14.332 13.06 17.886 12.291 21.247H13.291C14.06 17.886 14.386 14.332 14.363 10.217H13.363V10.216ZM15.363 10.216C15.386 14.332 15.06 17.886 14.291 21.247H19.707C18.934 17.884 18.59 14.331 18.611 10.217H15.363V10.216ZM12.055 22.247L12.053 22.257H11.692C10.693 22.257 10 23.213 10 24.257C10 24.614 10.085 24.957 10.23 25.257H9.854C8.83 25.257 8 26.11 8 27.137V27.91L8.002 27.92V27.93L8 28.29V29.254H9V28.291L9.002 27.93V27.92L9 27.91V27.136C9 26.109 9.83 25.256 10.854 25.256H11.231C11.0801 24.9442 11.0015 24.6024 11.001 24.256C11.001 23.213 11.693 22.256 12.691 22.256H13.053L13.055 22.246L12.055 22.247ZM14.055 22.247L14.053 22.257H13.692C12.693 22.257 12 23.213 12 24.257C12 24.614 12.085 24.957 12.23 25.257H11.854C10.83 25.257 10 26.109 10 27.137V27.91L10.002 27.92V27.93L10 28.29V29.254H24V27.14C24 26.113 23.169 25.26 22.145 25.26H21.768C21.9197 24.9484 21.999 24.6066 22 24.26C22 23.217 21.305 22.26 20.307 22.26H19.945L19.943 22.25H14.055V22.247Z" fill="#39D89C"/>
</svg>
