<svg width="110" height="161" viewBox="0 0 110 161" fill="none" xmlns="http://www.w3.org/2000/svg">
<path d="M109.306 112.519C99.8791 127.601 90.9332 142.984 82.4875 158.635C63.1567 161.745 44.7874 161.43 26.544 159.74C17.1867 152.367 12.7356 145.05 8.66515 136.111C6.22742 116.132 3.49607 96.1877 0 75.6953C9.9187 55.5917 19.8374 35.4913 32.2422 14.4246C42.4416 9.72334 52.5346 4.79303 65.0862 0.00146484C72.8285 2.46178 80.2982 5.78204 87.7679 11.6142C95.8942 30.9676 103.07 50.7194 109.312 71.42C110.098 84.8251 110.058 98.2785 109.306 112.519Z" fill="#5B8C8C"/>
<path d="M68.6371 22.1992L74.4031 20.6198L87.7694 11.6142C80.2998 5.78204 72.8301 2.46339 65.0878 0.00146484L66.2945 17.6561L68.6371 22.1992Z" fill="#76A8A8"/>
<path d="M9.94771 77.131L35.3365 64.5197L43.6161 27.7021L32.2438 14.426C19.839 35.4912 9.92028 55.5931 0.00158691 75.6967L9.94771 77.131Z" fill="#76A8A8"/>
<path d="M41.0897 125.899L20.6586 122.633L8.66675 136.111C12.7372 145.05 17.1899 152.365 26.5456 159.74L43.2515 148.847L41.0897 125.899Z" fill="#719696"/>
<path d="M96.2523 104.908L80.474 120.533L77.2361 142.124L82.4874 158.635C90.9332 142.984 99.879 127.601 109.306 112.519L96.2523 104.908Z" fill="#5E7D7D"/>
<path d="M71.1039 52.9862L93.7162 78.2686L109.314 71.42C103.072 50.7195 95.8958 30.9677 87.7695 11.6143L74.4031 20.6198L71.1039 52.9862Z" fill="#5E7D7D"/>
<path d="M43.6161 27.7007L64.0601 28.6122L66.2929 17.6546L65.0862 0C52.5361 4.79318 42.4416 9.72188 32.2438 14.4231L43.6161 27.7007Z" fill="#5B8C8C"/>
<path d="M20.6586 122.633L43.2515 148.846C54.5819 146.604 65.909 144.365 77.2361 142.122C84.4412 129.721 90.5428 117.404 96.2524 104.906C95.9652 103.025 93.7146 78.2669 93.7146 78.2669C87.2774 59.0523 80.8387 39.8344 74.4032 20.6181C74.1015 20.4294 66.2946 17.6528 66.2946 17.6528L43.6161 27.699C32.3616 44.1081 20.8506 60.3413 9.94775 77.1295C12.7824 92.2883 16.1171 107.353 20.6586 122.633Z" fill="#92C2C2"/>
<path d="M20.6586 122.633L43.2515 148.846C54.5819 146.604 65.909 144.365 77.2361 142.122C84.4412 129.721 90.5428 117.403 96.2523 104.906C95.9652 103.025 93.7146 78.267 93.7146 78.267C92.1787 73.6835 90.6444 69.1 89.1086 64.5166C71.8573 73.9916 55.0078 81.6872 37.492 87.2515C32.9747 88.6858 28.3444 89.9925 23.6045 90.0216C19.3937 90.0474 15.0458 88.9455 11.7531 86.3755C14.1972 98.4319 17.0415 110.464 20.6586 122.633Z" fill="#76A8A8"/>
<path d="M41.2072 125.148H74.7833V115.63H71.3337L74.7833 111.058V67.4364C74.7833 56.7434 66.1149 48.075 55.4219 48.075H50.3929C50.1942 48.075 50.0332 48.236 50.0332 48.4347V53.7668C45.1587 53.7668 41.2072 57.7183 41.2072 62.5928V65.4234C41.2072 65.908 41.3883 66.3752 41.7151 66.7332L42.357 67.4364L41.2072 68.2606L42.7175 82.9485C42.9181 84.8996 44.241 86.5532 46.1004 87.1772L48.4454 87.9642L61.8479 66.3634H63.6691L43.4178 99.3404C42.0045 101.642 41.5821 104.417 42.2468 107.035L44.4293 115.63H41.2072V125.148Z" fill="#DBFFF7"/>
<path d="M13.2744 93.6564L11.7531 77.5651L22.4155 58.4553L9.20886 77.0246L13.2744 93.6564Z" fill="#DBFFF7"/>
<path d="M64.557 144.633L76.1084 140.84L84.9671 128.093L77.5975 143.255L64.557 144.633Z" fill="#DBFFF7"/>
<path d="M56.8518 21.838L66.0736 19.0905L72.8253 21.9364L77.0812 28.6139L74.8307 20.3311L66.2462 16.9561L56.8518 21.838Z" fill="#DBFFF7"/>
</svg>
