<svg width="73" height="202" viewBox="0 0 73 202" fill="none" xmlns="http://www.w3.org/2000/svg">
<path d="M65.5 148.254H72V167H1V148.254H7.00556H8.2904L7.97496 147.009L2.00397 123.433C1.40858 121.082 1.78711 118.59 3.05381 116.522L49.6886 40.3867L50.6211 38.8644H48.8359H44.8762H44.3191L44.0259 39.3382L15.3042 85.7484L7.36988 83.0788C5.8834 82.5786 4.82636 81.2559 4.66635 79.6957L1.05387 44.4741L3.08358 43.0154L3.99525 42.3603L3.23942 41.5301L1.84303 39.9965C1.30062 39.4007 1 38.6241 1 37.8184V31.5959C1 21.5503 9.14356 13.4068 19.1892 13.4068H20.1892V12.4068V1H30.7966C53.5526 1 72 19.4474 72 42.2034V136.954L64.701 146.653L63.4959 148.254H65.5Z" fill="#141F1A" stroke="#12CD75" stroke-width="2"/>
<path d="M0 201.629C0.0228096 200.008 0.0456192 198.681 0.0684288 197.646C0.0912384 196.61 0.102643 195.755 0.102643 195.08C0.125453 194.383 0.136857 193.786 0.136857 193.291C0.136857 192.774 0.136857 192.256 0.136857 191.738C0.136857 191.198 0.136857 190.557 0.136857 189.814C0.136857 189.072 0.136857 188.442 0.136857 187.924C0.136857 187.384 0.136857 186.866 0.136857 186.371C0.136857 185.854 0.125453 185.257 0.102643 184.582C0.102643 183.885 0.0912384 183.018 0.0684288 181.983C0.0456192 180.948 0.0228096 179.62 0 178H10.8459C12.2829 178 13.5375 178.259 14.6095 178.776C15.7044 179.271 16.5483 180.059 17.1414 181.139C17.7572 182.219 18.0652 183.626 18.0652 185.359C18.0652 187.001 17.6888 188.329 16.9361 189.342C16.2062 190.332 15.1341 191.063 13.7199 191.536C12.3286 191.986 10.6178 192.211 8.5878 192.211C8.86151 193.021 9.16944 193.696 9.51158 194.236C9.87654 194.776 10.2757 195.215 10.7091 195.553C11.1425 195.868 11.5987 196.093 12.0777 196.228C12.5795 196.34 13.1041 196.397 13.6515 196.397C14.2674 196.397 14.8946 196.34 15.5333 196.228C16.1948 196.093 16.8106 195.924 17.3809 195.722C17.9511 195.519 18.4301 195.283 18.8179 195.013V201.325C18.4529 201.482 17.9625 201.617 17.3467 201.73C16.7536 201.842 15.9667 201.899 14.9859 201.899C13.4576 201.899 12.1119 201.527 10.9486 200.785C9.80811 200.042 8.86151 198.951 8.1088 197.511C7.37889 196.07 6.86567 194.315 6.56915 192.245C5.7252 192.245 5.02951 192.267 4.48208 192.312C3.95746 192.335 3.54688 192.391 3.25036 192.481C2.97665 192.571 2.75996 192.706 2.60029 192.886C2.37219 193.134 2.22393 193.471 2.1555 193.899C2.08707 194.304 2.05286 194.889 2.05286 195.654C2.05286 196.059 2.06426 196.622 2.08707 197.342C2.10988 198.062 2.13269 198.816 2.1555 199.603C2.20112 200.368 2.23534 201.044 2.25815 201.629H0ZM7.69822 190.456C9.18084 190.456 10.3441 190.422 11.1881 190.354C12.032 190.287 12.6707 190.186 13.1041 190.051C13.4918 189.938 13.8454 189.769 14.1647 189.544C14.5069 189.297 14.7806 188.982 14.9859 188.599C15.1912 188.217 15.2938 187.744 15.2938 187.181C15.2938 186.641 15.1912 186.18 14.9859 185.797C14.7806 185.415 14.5183 185.1 14.1989 184.852C13.9024 184.605 13.5603 184.425 13.1725 184.312C12.876 184.222 12.4996 184.155 12.0434 184.11C11.5873 184.042 11.0056 183.997 10.2985 183.975C9.61423 183.93 8.74746 183.907 7.69822 183.907C6.76303 183.907 5.9761 183.93 5.33743 183.975C4.72158 183.997 4.21977 184.042 3.832 184.11C3.46705 184.155 3.15912 184.222 2.90822 184.312C2.68012 184.402 2.49765 184.549 2.36079 184.751C2.22393 184.954 2.12129 185.246 2.05286 185.629C1.98443 185.989 1.95022 186.506 1.95022 187.181C1.95022 187.857 1.98443 188.385 2.05286 188.768C2.12129 189.15 2.22393 189.443 2.36079 189.646C2.49765 189.826 2.68012 189.961 2.90822 190.051C3.15912 190.141 3.46705 190.219 3.832 190.287C4.21977 190.332 4.72158 190.377 5.33743 190.422C5.9761 190.444 6.76303 190.456 7.69822 190.456Z" fill="white"/>
<path d="M27.754 202C26.6819 202 25.7125 201.809 24.8457 201.426C23.979 201.021 23.2947 200.414 22.7929 199.603C22.3139 198.771 22.0744 197.736 22.0744 196.498C22.0744 195.44 22.0744 194.473 22.0744 193.595C22.0744 192.717 22.063 191.907 22.0402 191.165C22.0402 190.399 22.0288 189.679 22.006 189.004C22.006 188.307 21.9946 187.643 21.9717 187.013C21.9717 186.36 21.9603 185.685 21.9375 184.987H23.922C23.8992 185.595 23.8763 186.169 23.8535 186.709C23.8307 187.249 23.8079 187.767 23.7851 188.262C23.7851 188.734 23.7851 189.207 23.7851 189.679C23.7851 190.129 23.7851 190.579 23.7851 191.03C23.7851 191.457 23.7851 191.896 23.7851 192.346C23.7851 193.156 23.8649 193.809 24.0246 194.304C24.1843 194.799 24.4466 195.17 24.8115 195.418C25.1993 195.643 25.7011 195.8 26.317 195.89C26.9556 195.98 27.754 196.025 28.712 196.025C29.8524 196.025 30.7876 195.958 31.5175 195.823C32.2474 195.665 32.8063 195.429 33.194 195.114C33.6046 194.776 33.8783 194.326 34.0152 193.764C34.1749 193.201 34.2547 192.526 34.2547 191.738C34.2547 191.311 34.2547 190.872 34.2547 190.422C34.2547 189.949 34.2433 189.443 34.2205 188.903C34.2205 188.34 34.2091 187.733 34.1863 187.08C34.1863 186.428 34.1634 185.73 34.1178 184.987H36.1023C36.1023 185.73 36.0909 186.45 36.068 187.148C36.068 187.845 36.0566 188.52 36.0338 189.173C36.0338 189.826 36.0338 190.444 36.0338 191.03C36.0338 191.615 36.0338 192.177 36.0338 192.717C36.0338 193.235 36.0338 193.719 36.0338 194.169C36.0338 194.821 36.0338 195.496 36.0338 196.194C36.0338 196.892 36.0338 197.578 36.0338 198.253C36.0566 198.928 36.068 199.558 36.068 200.143C36.0909 200.729 36.1023 201.224 36.1023 201.629H34.152C34.1749 201.224 34.1863 200.841 34.1863 200.481C34.2091 200.098 34.2205 199.772 34.2205 199.502C34.2205 199.075 34.2091 198.771 34.1863 198.591C34.1634 198.388 34.0836 198.287 33.9468 198.287C33.8327 198.287 33.7073 198.354 33.5704 198.489C33.4335 198.624 33.2054 198.895 32.8861 199.3C32.658 199.637 32.3273 200.02 31.8939 200.447C31.4833 200.875 30.9359 201.246 30.2516 201.561C29.5901 201.854 28.7576 202 27.754 202Z" fill="white"/>
<path d="M40.0909 201.629C40.1137 200.886 40.1251 200.143 40.1251 199.401C40.1479 198.658 40.1593 197.916 40.1593 197.173C40.1821 196.43 40.1935 195.722 40.1935 195.046C40.1935 194.349 40.1935 193.696 40.1935 193.089C40.1935 192.481 40.1935 191.828 40.1935 191.131C40.1935 190.411 40.1821 189.691 40.1593 188.97C40.1593 188.25 40.1479 187.553 40.1251 186.878C40.1251 186.18 40.1137 185.55 40.0909 184.987H42.0753C42.0525 185.392 42.0297 185.786 42.0069 186.169C41.9841 186.529 41.9727 186.833 41.9727 187.08C41.9727 187.53 41.9841 187.857 42.0069 188.059C42.0297 188.239 42.1209 188.329 42.2806 188.329C42.3947 188.329 42.5087 188.262 42.6228 188.127C42.7596 187.969 42.9763 187.688 43.2728 187.283C43.5237 186.945 43.8887 186.574 44.3677 186.169C44.8467 185.741 45.4511 185.381 46.181 185.089C46.9338 184.774 47.8233 184.616 48.8498 184.616C50.0131 184.616 51.0395 184.819 51.9291 185.224C52.8414 185.606 53.5599 186.203 54.0846 187.013C54.632 187.823 54.9057 188.858 54.9057 190.118C54.9057 191.153 54.9057 192.121 54.9057 193.021C54.9057 193.899 54.9057 194.72 54.9057 195.485C54.9057 196.228 54.9057 196.937 54.9057 197.612C54.9285 198.287 54.9513 198.951 54.9741 199.603C54.9969 200.256 55.0197 200.931 55.0426 201.629H53.0581C53.0809 200.999 53.0923 200.414 53.0923 199.873C53.1152 199.333 53.1266 198.816 53.1266 198.321C53.1494 197.826 53.1608 197.353 53.1608 196.903C53.1836 196.453 53.195 196.003 53.195 195.553C53.195 195.103 53.195 194.641 53.195 194.169C53.195 193.381 53.1037 192.74 52.9213 192.245C52.7616 191.75 52.4765 191.378 52.0659 191.131C51.6782 190.883 51.1307 190.714 50.4236 190.624C49.7393 190.534 48.8726 190.489 47.8233 190.489C46.6144 190.489 45.6222 190.568 44.8467 190.726C44.094 190.883 43.5009 191.131 43.0675 191.468C42.6342 191.783 42.3376 192.222 42.178 192.785C42.0183 193.347 41.9385 194.023 41.9385 194.81C41.9385 195.215 41.9385 195.654 41.9385 196.127C41.9385 196.599 41.9385 197.117 41.9385 197.679C41.9613 198.242 41.9841 198.85 42.0069 199.502C42.0297 200.155 42.0525 200.864 42.0753 201.629H40.0909Z" fill="white"/>
<path d="M67.2862 202C65.6211 202 64.1955 201.797 63.0094 201.392C61.8233 200.987 60.8539 200.402 60.1012 199.637C59.3485 198.872 58.7896 197.949 58.4247 196.869C58.0826 195.767 57.9115 194.529 57.9115 193.156C57.9115 191.333 58.2308 189.792 58.8695 188.532C59.5081 187.249 60.3977 186.281 61.5382 185.629C62.6787 184.954 63.9788 184.616 65.4386 184.616C67.3318 184.616 68.8259 184.942 69.9207 185.595C71.0384 186.225 71.8253 187.204 72.2815 188.532C72.7605 189.859 73 191.558 73 193.629H59.6564C59.7477 194.191 59.9301 194.709 60.2038 195.181C60.5004 195.632 60.9109 196.025 61.4356 196.363C61.9602 196.678 62.6103 196.925 63.3858 197.105C64.1613 197.286 65.0851 197.376 66.1571 197.376C67.1836 197.376 68.1644 197.308 69.0996 197.173C70.0348 197.038 71.1068 196.824 72.3157 196.532V201.325C71.5174 201.55 70.7419 201.719 69.9891 201.831C69.2364 201.944 68.3354 202 67.2862 202ZM71.1866 192.076C71.1866 191.086 70.662 190.287 69.6128 189.679C68.5863 189.072 67.195 188.768 65.4386 188.768C64.3894 188.768 63.4428 188.914 62.5988 189.207C61.7549 189.477 61.082 189.859 60.5802 190.354C60.0784 190.85 59.8161 191.423 59.7933 192.076H71.1866Z" fill="white"/>
</svg>
